<svg width="32" height="32" viewBox="0 0 32 32" fill="none" xmlns="http://www.w3.org/2000/svg">
<path d="M21.7813 1.3335C21.7813 1.3335 19.6002 1.38633 17.6002 3.38632C15.6001 5.38632 15.9375 8.08066 15.9375 8.08066C15.9375 8.08066 17.9173 8.44268 20.0303 6.32972C22.1434 4.21675 21.7813 1.3335 21.7813 1.3335Z" fill="#F1FFFF"/>
<path d="M16.166 9.78597C14.6918 9.77589 13.7862 8.50295 11.2755 8.50295C9.01633 8.50295 6.75164 9.96052 5.78868 11.3709C4.83019 12.7746 4 14.3143 4 17.4388C4 20.5633 5.50442 25.9369 9.2038 29.5746C9.83734 30.1976 10.676 30.6659 11.6327 30.6949C13.3535 30.747 14.4101 29.4589 16.5837 29.4589C18.7572 29.4589 19.4113 30.6949 21.3736 30.6949C22.2659 30.6949 23.2835 30.2885 24.2717 29.2375C25.5396 27.8891 27.113 25.321 27.9144 22.8577C27.9144 22.8577 23.9011 21.3077 23.9496 16.84C23.9899 13.1369 27.1345 11.3155 27.1345 11.3155C27.1345 11.3155 25.298 8.38721 21.3937 8.38721C18.6969 8.40737 17.4893 9.79502 16.166 9.78597Z" fill="#F1FFFF"/>
</svg>
