<svg width="323" height="214" viewBox="0 0 323 214" fill="none" xmlns="http://www.w3.org/2000/svg">
<g clip-path="url(#clip0_4275_6194)">
<rect width="323" height="491" fill="url(#paint0_linear_4275_6194)"/>
<circle opacity="0.23" cx="161.5" cy="108.5" r="124.5" fill="#166AF6"/>
<circle opacity="0.23" cx="161.5" cy="108.501" r="76.3841" fill="#166AF6"/>
<g opacity="0.3">
<path d="M78.2706 241.579C84.1967 244.69 87.1598 246.243 90.3456 246.243V212.495L58.7508 195.867L58.6158 196.093C56.5977 199.515 56.5977 203.778 56.5977 212.299V212.694C56.5977 221.212 56.5977 225.474 58.6124 228.896C60.6305 232.322 64.2618 234.228 71.521 238.039L78.2706 241.579Z" fill="white"/>
<path opacity="0.7" d="M109.166 186.958L102.416 183.414C96.4937 180.306 93.5307 178.75 90.3448 178.75C87.1557 178.75 84.196 180.302 78.2698 183.414L71.5202 186.958C64.4197 190.683 60.7884 192.587 58.75 195.867L90.3448 212.498L121.94 195.87C119.895 192.587 116.27 190.683 109.166 186.958Z" fill="white"/>
<path opacity="0.5" d="M122.079 196.093L121.941 195.867L90.3457 212.495V246.243C93.5315 246.243 96.4946 244.69 102.421 241.579L109.17 238.035C116.43 234.225 120.061 232.322 122.079 228.896C124.094 225.474 124.094 221.212 124.094 212.697V212.302C124.094 203.781 124.094 199.515 122.079 196.093Z" fill="white"/>
</g>
<g opacity="0.32">
<path opacity="0.5" d="M259.186 61.3407C278.601 61.3407 294.341 45.6014 294.341 26.186C294.341 6.77056 278.601 -8.96875 259.186 -8.96875C239.771 -8.96875 224.031 6.77056 224.031 26.186C224.031 45.6014 239.771 61.3407 259.186 61.3407Z" fill="white"/>
<path d="M247.145 17.211C246.488 9.88477 240.838 3.05772 238.093 0.561738L236.581 -0.738987C242.908 -6.06572 250.915 -8.98114 259.186 -8.96871C266.969 -8.96871 274.161 -6.43757 279.983 -2.16275C280.806 0.336748 279.238 5.55723 277.593 8.05321C276.995 8.95669 275.645 10.0816 274.161 11.1468C270.822 13.5479 266.603 14.7326 264.459 19.1551C263.923 20.2685 263.819 21.5411 264.167 22.7268C264.378 23.5002 264.519 24.3404 264.519 25.1595C264.526 27.8137 261.84 29.7296 259.186 29.7015C252.281 29.6277 247.76 24.0627 247.145 17.211ZM264.237 48.2491C267.711 41.7033 279.287 41.7033 279.287 41.7033C291.352 41.5768 292.983 34.2505 294.073 30.5487C293.112 38.2165 289.653 45.3543 284.229 50.8595C278.806 56.3646 271.721 59.9307 264.069 61.0068C262.933 58.6163 261.59 53.2376 264.237 48.2491Z" fill="white"/>
</g>
<g opacity="0.3">
<path d="M272.794 132.609H272.494C269.898 132.609 267.736 132.609 266.021 132.84C264.208 133.083 262.571 133.62 261.258 134.933C259.941 136.25 259.404 137.887 259.162 139.697C258.931 141.415 258.931 143.58 258.931 146.173V146.398C260.247 146.357 261.691 146.334 263.261 146.329V146.323C263.261 143.54 263.267 141.669 263.455 140.274C263.634 138.944 263.943 138.372 264.321 137.997C264.699 137.621 265.265 137.312 266.596 137.13C267.99 136.946 269.861 136.94 272.644 136.94C275.427 136.94 277.298 136.946 278.692 137.133C280.023 137.312 280.595 137.621 280.97 137.999C281.346 138.378 281.654 138.944 281.836 140.274C282.021 141.669 282.027 143.54 282.027 146.323V146.329C283.471 146.332 284.914 146.355 286.357 146.398V146.173C286.357 143.58 286.357 141.415 286.126 139.7C285.884 137.887 285.347 136.25 284.03 134.936C282.717 133.62 281.08 133.083 279.267 132.84C277.552 132.609 275.387 132.609 272.794 132.609Z" fill="white"/>
<path opacity="0.5" d="M243.774 169.417C243.774 158.53 243.774 153.085 247.158 149.704C250.542 146.323 255.984 146.32 266.871 146.32H278.419C289.306 146.32 294.751 146.32 298.131 149.704C301.512 153.088 301.515 158.53 301.515 169.417C301.515 180.304 301.515 185.748 298.131 189.129C294.748 192.51 289.306 192.513 278.419 192.513H266.871C255.984 192.513 250.539 192.513 247.158 189.129C243.777 185.746 243.774 180.304 243.774 169.417Z" fill="white"/>
<path d="M244.002 180.246C243.898 178.947 243.84 177.512 243.812 175.916H301.477C301.448 177.512 301.39 178.947 301.286 180.246H244.002ZM301.284 158.594C301.388 159.893 301.445 161.328 301.477 162.924H243.812C243.84 161.328 243.898 159.893 244.002 158.594H301.284Z" fill="white"/>
</g>
<g opacity="0.3">
<path fill-rule="evenodd" clip-rule="evenodd" d="M29.3232 137.135L30.0718 135.87C31.2696 133.841 31.8685 132.829 32.8268 132.263C33.7823 131.699 35.0319 131.658 37.5228 131.577C39.8612 131.503 41.432 131.299 42.7768 130.743C44.1777 130.163 45.4505 129.312 46.5225 128.24C47.5945 127.167 48.4447 125.894 49.0245 124.493C49.9038 122.372 49.9038 119.683 49.9038 114.304V111.995C49.9038 104.435 49.9038 100.657 48.2024 97.8799C47.2496 96.3281 45.9429 95.0214 44.3911 94.0686C41.6144 92.3672 37.8358 92.3672 30.276 92.3672H23.3505C15.7906 92.3672 12.0121 92.3672 9.23532 94.0686C7.68361 95.0214 6.3769 96.3281 5.4241 97.8799C3.72266 100.657 3.72266 104.435 3.72266 111.995V114.304C3.72266 119.683 3.72266 122.372 4.60196 124.496C5.18203 125.896 6.03235 127.169 7.10434 128.241C8.17632 129.313 9.44899 130.163 10.8496 130.743C12.1945 131.299 13.7625 131.506 16.1037 131.577C18.5973 131.658 19.8441 131.699 20.7997 132.263C21.7525 132.829 22.3541 133.841 23.5546 135.87L24.3033 137.135C25.4194 139.019 28.2071 139.019 29.3232 137.135ZM36.9157 115.458C37.681 115.458 38.415 115.154 38.9562 114.613C39.4973 114.071 39.8013 113.337 39.8013 112.572C39.8013 111.807 39.4973 111.073 38.9562 110.532C38.415 109.991 37.681 109.686 36.9157 109.686C36.1504 109.686 35.4164 109.991 34.8752 110.532C34.3341 111.073 34.0301 111.807 34.0301 112.572C34.0301 113.337 34.3341 114.071 34.8752 114.613C35.4164 115.154 36.1504 115.458 36.9157 115.458ZM29.7016 112.572C29.7016 112.951 29.6269 113.327 29.4818 113.677C29.3367 114.027 29.1241 114.345 28.856 114.614C28.5879 114.882 28.2697 115.094 27.9194 115.239C27.5691 115.384 27.1937 115.459 26.8146 115.459C26.4355 115.459 26.06 115.384 25.7098 115.239C25.3595 115.094 25.0413 114.882 24.7732 114.614C24.5051 114.345 24.2924 114.027 24.1473 113.677C24.0023 113.327 23.9276 112.951 23.9276 112.572C23.9276 111.807 24.2316 111.073 24.7728 110.532C25.3139 109.991 26.0479 109.686 26.8132 109.686C27.5786 109.686 28.3125 109.991 28.8537 110.532C29.3948 111.073 29.6989 111.807 29.6989 112.572M16.708 115.458C17.4734 115.458 18.2073 115.154 18.7485 114.613C19.2897 114.071 19.5937 113.337 19.5937 112.572C19.5937 111.807 19.2897 111.073 18.7485 110.532C18.2073 109.991 17.4734 109.686 16.708 109.686C15.9427 109.686 15.2087 109.991 14.6676 110.532C14.1264 111.073 13.8224 111.807 13.8224 112.572C13.8224 113.337 14.1264 114.071 14.6676 114.613C15.2087 115.154 15.9427 115.458 16.708 115.458Z" fill="white"/>
<path opacity="0.5" d="M43.1569 78.6562C46.606 78.6562 49.3474 78.6563 51.547 78.8659C53.8038 79.0809 55.7121 79.5301 57.4081 80.57C59.1537 81.6433 60.6225 83.112 61.6957 84.8577C62.7384 86.5564 63.1876 88.4647 63.4026 90.7188C63.6095 92.9184 63.6095 95.6625 63.6095 99.1089V101.466C63.6095 103.919 63.6095 105.874 63.5006 107.455C63.3917 109.075 63.1603 110.466 62.6213 111.768C61.952 113.383 60.9631 114.847 59.7141 116.072C58.4651 117.296 56.9816 118.255 55.3528 118.892C54.9716 119.041 54.6377 119.163 54.351 119.259H49.8592C49.9027 117.901 49.9027 116.284 49.9027 114.299V111.991C49.9027 104.431 49.9027 100.652 48.2013 97.8757C47.2485 96.324 45.9418 95.0173 44.3901 94.0645C41.6133 92.363 37.8348 92.363 30.2749 92.363H23.3494C20.6652 92.363 18.4601 92.363 16.6035 92.4393V87.9475C16.6943 87.6389 16.8122 87.2796 16.9574 86.8694C17.1988 86.1635 17.5128 85.4929 17.8993 84.8577C18.9734 83.1117 20.4431 81.6429 22.1897 80.57C23.8884 79.5301 25.794 79.0809 28.0508 78.8659C30.2504 78.6563 32.9918 78.6562 36.4409 78.6562H43.1569Z" fill="white"/>
</g>
<g opacity="0.2">
<path opacity="0.5" d="M62.4141 6.13709C62.4141 -6.69584 62.4141 -13.1123 66.3995 -17.1005C70.3904 -21.0859 76.8042 -21.0859 89.6371 -21.0859C102.47 -21.0859 108.886 -21.0859 112.872 -17.1005C116.86 -13.1096 116.86 -6.69584 116.86 6.13709C116.86 18.97 116.86 25.3865 112.872 29.3719C108.889 33.3601 102.47 33.3601 89.6371 33.3601C76.8042 33.3601 70.3877 33.3601 66.3995 29.3719C62.4141 25.3892 62.4141 18.97 62.4141 6.13709Z" fill="white"/>
<path d="M66.4022 29.3746C70.3877 33.3601 76.8042 33.3601 89.6371 33.3601C102.47 33.3601 108.889 33.3601 112.875 29.3719C116.569 25.6805 116.841 19.901 116.86 8.85938H108.258C105.794 8.85938 104.561 8.85937 103.48 9.35756C102.397 9.85574 101.593 10.7922 99.99 12.6624L98.343 14.5844C96.7369 16.4546 95.9365 17.3911 94.853 17.8893C93.7695 18.3874 92.5391 18.3874 90.0754 18.3874H89.2015C86.7378 18.3874 85.5046 18.3874 84.4212 17.8893C83.3377 17.3911 82.5373 16.4546 80.9339 14.5844L79.2842 12.6624C77.6807 10.7922 76.8804 9.85574 75.7969 9.35756C74.7134 8.85937 73.4829 8.85938 71.0165 8.85938H62.4141C62.4331 19.8983 62.7053 25.6832 66.4022 29.3746Z" fill="white"/>
<path d="M91.0799 -10.2779C90.6971 -10.6602 90.1782 -10.875 89.6371 -10.875C89.096 -10.875 88.5771 -10.6602 88.1943 -10.2779L79.2107 -1.29429C79.0101 -1.10737 78.8492 -0.881963 78.7376 -0.631513C78.626 -0.381063 78.566 -0.110703 78.5612 0.163441C78.5563 0.437584 78.6067 0.709896 78.7094 0.964127C78.8121 1.21836 78.965 1.4493 79.1588 1.64318C79.3527 1.83706 79.5837 1.9899 79.8379 2.09259C80.0921 2.19528 80.3644 2.2457 80.6386 2.24087C80.9127 2.23603 81.1831 2.17603 81.4335 2.06444C81.684 1.95284 81.9094 1.79195 82.0963 1.59135L87.5954 -3.9077V18.3798C86.1417 18.358 85.2406 18.2655 84.4212 17.8898C83.3404 17.3916 82.5373 16.4551 80.9339 14.5849L79.2842 12.663C77.6807 10.7927 76.8804 9.85626 75.7969 9.35808C74.7134 8.8599 73.4829 8.8599 71.0165 8.8599H62.4141C62.4331 19.8988 62.7053 25.681 66.4022 29.3725C70.3877 33.3606 76.8042 33.3606 89.6371 33.3606C102.47 33.3606 108.889 33.3606 112.875 29.3725C116.569 25.681 116.841 19.9016 116.86 8.8599H108.258C105.794 8.8599 104.561 8.8599 103.48 9.35808C102.397 9.85626 101.593 10.7927 99.99 12.663L98.343 14.5849C96.7369 16.4551 95.9365 17.3916 94.853 17.8898C94.0363 18.2655 93.1325 18.358 91.6788 18.3798V-3.90498L97.1779 1.59407C97.3663 1.78899 97.5917 1.94442 97.8408 2.05131C98.09 2.1582 98.3579 2.21439 98.629 2.21662C98.9001 2.21884 99.1689 2.16706 99.4198 2.06428C99.6707 1.9615 99.8986 1.80979 100.09 1.618C100.282 1.4262 100.433 1.19817 100.536 0.947205C100.638 0.696237 100.69 0.42736 100.687 0.156262C100.685 -0.114835 100.628 -0.382722 100.521 -0.63177C100.414 -0.880817 100.259 -1.10604 100.064 -1.29429L91.0799 -10.2779Z" fill="white"/>
</g>
<g opacity="0.7">
<g opacity="0.6">
<path opacity="0.5" d="M163.336 162.009C193.405 162.009 217.782 137.633 217.782 107.563C217.782 77.4935 193.405 53.1172 163.336 53.1172C133.266 53.1172 108.89 77.4935 108.89 107.563C108.89 137.633 133.266 162.009 163.336 162.009Z" fill="white"/>
<path d="M192.634 87.4426L163.179 74.6554C159.771 73.1761 157.031 78.0675 159.666 80.9274L167.921 89.8949C172.078 94.4116 173.436 101.315 171.364 107.403L158.831 144.154C157.466 148.158 162.099 151.234 164.52 147.941L196.529 104.346C200.685 98.6849 198.694 90.079 192.628 87.4492L192.634 87.4426Z" fill="white"/>
<path d="M135.989 119.756L156.468 122.27C158.838 122.561 159.822 118.966 157.73 117.661L151.175 113.567C147.875 111.505 145.975 107.414 146.358 103.192L148.684 77.6988C148.937 74.9216 145.555 73.8553 144.53 76.384L130.977 109.847C129.217 114.192 131.774 119.236 135.991 119.751L135.989 119.756Z" fill="white"/>
</g>
</g>
</g>
<defs>
<linearGradient id="paint0_linear_4275_6194" x1="1.4819e-05" y1="372.5" x2="323" y2="185.5" gradientUnits="userSpaceOnUse">
<stop stop-color="#04B5F5"/>
<stop offset="1" stop-color="#166AF6"/>
</linearGradient>
<clipPath id="clip0_4275_6194">
<rect width="323" height="214" fill="white"/>
</clipPath>
</defs>
</svg>
