<svg width="323" height="357" viewBox="0 0 323 357" fill="none" xmlns="http://www.w3.org/2000/svg">
<g clip-path="url(#clip0_4275_6279)">
<path d="M0 0H323V491H0V0Z" fill="url(#paint0_linear_4275_6279)"/>
<circle cx="287.894" cy="342.383" r="3.94515" fill="#04B5F5"/>
<circle cx="137.894" cy="292.383" r="3.94515" fill="#04B5F5"/>
<circle cx="257.894" cy="193.383" r="3.94515" fill="#04B5F5"/>
<circle cx="47.8944" cy="32.3826" r="3.94515" fill="#04B5F5"/>
<path d="M68.5 371C68.5 371.276 68.2761 371.5 68 371.5C67.7239 371.5 67.5 371.276 67.5 371V297H-9C-9.27614 297 -9.5 296.776 -9.5 296.5C-9.5 296.224 -9.27614 296 -9 296H68.5V371ZM179.5 -38.5C179.776 -38.5 180 -38.2761 180 -38V264.5H288.5V193.5H336.5C336.776 193.5 337 193.724 337 194C337 194.276 336.776 194.5 336.5 194.5H289.5V264.5H329C329.276 264.5 329.5 264.724 329.5 265C329.5 265.276 329.276 265.5 329 265.5H289.5V318.5H179V265.5H94V367.5C94 367.776 93.7761 368 93.5 368C93.2239 368 93 367.776 93 367.5V265.5H25.5V85.5H94V264.5H179V-38C179 -38.2761 179.224 -38.5 179.5 -38.5ZM180 317.5H288.5V265.5H180V317.5ZM26.5 264.5H93V86.5H26.5V264.5ZM254.5 -37C254.776 -37 255 -36.7761 255 -36.5V108C255 108.276 254.776 108.5 254.5 108.5C254.224 108.5 254 108.276 254 108V-36.5C254 -36.7761 254.224 -37 254.5 -37Z" fill="url(#paint1_linear_4275_6279)"/>
<rect x="110" y="140" width="104" height="104" rx="52" fill="white" fill-opacity="0.3"/>
<path opacity="0.6" d="M182.578 214.296C186.381 212.224 188.666 209.563 188.666 206.664C188.666 203.592 186.098 200.787 181.877 198.664C176.994 196.211 169.898 194.664 162 194.664C154.101 194.664 147.005 196.211 142.122 198.664C137.901 200.787 135.333 203.592 135.333 206.664C135.333 209.736 137.901 212.541 142.122 214.664C147.005 217.117 154.101 218.664 162 218.664C170.285 218.664 177.685 216.965 182.578 214.296Z" fill="white"/>
<path fill-rule="evenodd" clip-rule="evenodd" d="M154.666 170.669C154.666 168.724 155.439 166.859 156.814 165.484C158.189 164.109 160.054 163.336 161.999 163.336C163.944 163.336 165.81 164.109 167.185 165.484C168.56 166.859 169.333 168.724 169.333 170.669C169.333 172.614 168.56 174.479 167.185 175.855C165.81 177.23 163.944 178.003 161.999 178.003C160.054 178.003 158.189 177.23 156.814 175.855C155.439 174.479 154.666 172.614 154.666 170.669Z" fill="white"/>
<path d="M151.928 190.861L146.128 188.928C145.134 188.6 144.304 187.903 143.809 186.981C143.313 186.06 143.191 184.983 143.466 183.973C143.742 182.964 144.394 182.098 145.288 181.555C146.183 181.012 147.252 180.834 148.274 181.056L153.336 182.141L153.896 182.258C159.431 183.404 165.146 183.364 170.664 182.141L175.722 181.056C176.746 180.831 177.816 181.009 178.712 181.551C179.609 182.094 180.262 182.96 180.538 183.97C180.814 184.981 180.691 186.059 180.195 186.981C179.699 187.904 178.867 188.601 177.872 188.928L172.072 190.861C171.37 191.096 171.021 191.213 170.757 191.376C170.318 191.647 169.966 192.039 169.746 192.506C169.525 192.973 169.445 193.494 169.514 194.005C169.557 194.312 169.69 194.656 169.954 195.346L173.28 203.992C173.637 204.916 173.632 205.942 173.265 206.863C172.898 207.784 172.197 208.532 171.301 208.957C170.405 209.383 169.382 209.453 168.436 209.156C167.491 208.858 166.693 208.213 166.202 207.352L162 199.997L157.797 207.349C157.307 208.211 156.509 208.855 155.563 209.153C154.617 209.451 153.594 209.38 152.699 208.955C151.803 208.529 151.101 207.781 150.734 206.86C150.367 205.939 150.362 204.914 150.72 203.989L154.045 195.346C154.312 194.656 154.442 194.312 154.485 194.005C154.555 193.494 154.474 192.973 154.254 192.506C154.033 192.039 153.682 191.647 153.242 191.376C152.978 191.213 152.629 191.096 151.928 190.861Z" fill="white"/>
<g opacity="0.6">
<path opacity="0.5" d="M253.846 289.768C254.797 284.698 255.271 282.161 257.076 280.661C258.883 279.164 261.462 279.164 266.623 279.164H275.376C280.539 279.164 283.117 279.164 284.924 280.661C286.729 282.161 287.204 284.696 288.155 289.768L289.78 298.434C291.117 305.567 291.786 309.133 289.836 311.482C287.886 313.831 284.259 313.831 277.003 313.831H264.998C257.741 313.831 254.112 313.831 252.164 311.482C250.214 309.133 250.884 305.567 252.221 298.434L253.846 289.768Z" fill="white"/>
<path d="M266.125 276.969C266.125 275.676 266.639 274.436 267.553 273.522C268.467 272.607 269.707 272.094 271 272.094C272.293 272.094 273.533 272.607 274.447 273.522C275.361 274.436 275.875 275.676 275.875 276.969V279.135C277.101 279.135 278.176 279.14 279.125 279.168V276.969C279.125 274.814 278.269 272.747 276.745 271.224C275.222 269.7 273.155 268.844 271 268.844C268.845 268.844 266.778 269.7 265.255 271.224C263.731 272.747 262.875 274.814 262.875 276.969V279.168C263.824 279.14 264.899 279.135 266.125 279.135V276.969ZM266.402 298.126C266.738 299.077 267.361 299.901 268.185 300.484C269.008 301.066 269.992 301.379 271.001 301.379C272.01 301.379 272.994 301.066 273.818 300.484C274.641 299.901 275.264 299.077 275.6 298.126C275.668 297.922 275.777 297.733 275.919 297.571C276.061 297.409 276.234 297.277 276.428 297.182C276.622 297.088 276.833 297.033 277.048 297.02C277.263 297.008 277.479 297.039 277.682 297.111C277.886 297.183 278.073 297.294 278.232 297.439C278.392 297.584 278.521 297.759 278.613 297.955C278.704 298.15 278.755 298.362 278.764 298.577C278.773 298.792 278.739 299.007 278.663 299.21C278.103 300.794 277.066 302.166 275.693 303.136C274.321 304.107 272.682 304.628 271.001 304.628C269.32 304.628 267.681 304.107 266.309 303.136C264.937 302.166 263.899 300.794 263.339 299.21C263.203 298.805 263.232 298.364 263.419 297.981C263.606 297.598 263.936 297.303 264.338 297.161C264.74 297.019 265.181 297.04 265.568 297.221C265.954 297.402 266.254 297.727 266.402 298.126Z" fill="white"/>
</g>
<g opacity="0.6">
<path opacity="0.5" d="M46.167 57.9974C46.167 40.9681 59.9711 27.1641 77.0003 27.1641C94.0296 27.1641 107.834 40.9681 107.834 57.9974C107.834 75.0266 94.0296 88.8307 77.0003 88.8307C59.9711 88.8307 46.167 75.0266 46.167 57.9974Z" fill="white"/>
<path d="M74.6161 47.4185L68.4032 52.3673C65.7977 54.4424 64.4935 55.4815 64.7494 56.6377L64.7617 56.6963C65.0516 57.8464 66.7042 58.2904 70.0096 59.1753C71.8441 59.6686 72.763 59.9153 73.1946 60.609L73.2162 60.646C73.6325 61.3521 73.3951 62.234 72.9233 63.9976L72.8 64.4601C71.4865 69.3503 70.8328 71.7954 72.0939 72.5847C73.355 73.3741 75.3622 71.7769 79.3798 68.5764L85.5927 63.6307C88.2012 61.5525 89.5024 60.5165 89.2496 59.3572L89.2372 59.2986C88.9443 58.1485 87.2947 57.7045 83.9894 56.8196C82.1548 56.3263 81.236 56.0796 80.8043 55.3859L80.7827 55.3489C80.3665 54.6459 80.6039 53.764 81.0756 52.0004L81.199 51.5379C82.5094 46.6477 83.1661 44.1995 81.9051 43.4102C80.644 42.6209 78.6337 44.2211 74.6161 47.4185Z" fill="white"/>
</g>
<g opacity="0.6">
<path d="M41.477 319.165C47.623 322.392 50.696 324.002 54 324.002V289.002L21.233 271.758L21.093 271.992C19 275.541 19 279.962 19 288.799V289.209C19 298.043 19 302.463 21.0895 306.012C23.1825 309.565 26.9485 311.542 34.477 315.494L41.477 319.165Z" fill="white"/>
<path opacity="0.7" d="M73.5199 262.512L66.5199 258.837C60.3774 255.613 57.3044 254 54.0004 254C50.6929 254 47.6234 255.61 41.4774 258.837L34.4774 262.512C27.1134 266.376 23.3474 268.35 21.2334 271.752L54.0004 289L86.7674 271.756C84.6464 268.35 80.8874 266.376 73.5199 262.512Z" fill="white"/>
<path opacity="0.5" d="M86.9105 271.992L86.767 271.758L54 289.002V324.002C57.304 324.002 60.377 322.392 66.523 319.165L73.523 315.49C81.0515 311.539 84.8175 309.565 86.9105 306.012C89 302.463 89 298.043 89 289.212V288.803C89 279.965 89 275.541 86.9105 271.992Z" fill="white"/>
</g>
<g opacity="0.6">
<path opacity="0.5" d="M248.074 108H259.925C268.248 108 272.41 108 275.4 106.04C276.69 105.195 277.801 104.104 278.669 102.829C280.666 99.8961 280.666 95.8081 280.666 87.6375C280.666 79.4668 280.666 75.3788 278.669 72.4455C277.801 71.1708 276.69 70.0797 275.4 69.2348C273.48 67.9735 271.074 67.5228 267.392 67.3628C265.634 67.3628 264.122 66.0561 263.778 64.3628C263.515 63.1224 262.832 62.0109 261.845 61.216C260.857 60.4211 259.625 59.9916 258.357 60.0001H249.642C247.008 60.0001 244.738 61.8268 244.221 64.3628C243.877 66.0561 242.365 67.3628 240.608 67.3628C236.928 67.5228 234.522 67.9761 232.6 69.2348C231.31 70.08 230.2 71.171 229.333 72.4455C227.333 75.3788 227.333 79.4641 227.333 87.6375C227.333 95.8108 227.333 99.8935 229.33 102.829C230.194 104.099 231.304 105.189 232.6 106.04C235.589 108 239.752 108 248.074 108Z" fill="white"/>
<path d="M268.816 76.7267C268.527 76.7242 268.24 76.7787 267.972 76.8872C267.704 76.9956 267.459 77.1558 267.253 77.3586C267.047 77.5614 266.882 77.8028 266.77 78.0692C266.657 78.3355 266.597 78.6214 266.595 78.9107C266.595 80.116 267.589 81.092 268.816 81.092H271.779C273.005 81.092 274.003 80.1133 274.003 78.9107C274 78.6212 273.941 78.335 273.828 78.0685C273.715 77.802 273.55 77.5605 273.343 77.3576C273.137 77.1548 272.892 76.9947 272.624 76.8864C272.355 76.7781 272.068 76.7239 271.779 76.7267H268.816Z" fill="white"/>
<path fill-rule="evenodd" clip-rule="evenodd" d="M254 76.7266C247.867 76.7266 242.891 81.6119 242.891 87.6359C242.891 93.6599 247.864 98.5452 254.003 98.5452C260.136 98.5452 265.112 93.6626 265.112 87.6386C265.112 81.6146 260.139 76.7266 254.003 76.7266M254.003 81.0919C250.323 81.0919 247.336 84.0226 247.336 87.6359C247.336 91.2492 250.323 94.1826 254.003 94.1826C257.685 94.1826 260.669 91.2519 260.669 87.6359C260.669 84.0226 257.685 81.0919 254.003 81.0919Z" fill="white"/>
</g>
</g>
<defs>
<linearGradient id="paint0_linear_4275_6279" x1="36" y1="274.463" x2="386.021" y2="75.947" gradientUnits="userSpaceOnUse">
<stop stop-color="#166AF6"/>
<stop offset="1" stop-color="#07ACF5"/>
</linearGradient>
<linearGradient id="paint1_linear_4275_6279" x1="163.75" y1="-38.5" x2="163.75" y2="371.5" gradientUnits="userSpaceOnUse">
<stop stop-color="#05B1F5"/>
<stop offset="1" stop-color="#166AF6"/>
</linearGradient>
<clipPath id="clip0_4275_6279">
<rect width="323" height="357" fill="white"/>
</clipPath>
</defs>
</svg>
