<svg width="323" height="356" viewBox="0 0 323 356" fill="none" xmlns="http://www.w3.org/2000/svg">
<g clip-path="url(#clip0_4275_6236)">
<g clip-path="url(#clip1_4275_6236)">
<rect width="323" height="356" fill="url(#paint0_linear_4275_6236)"/>
<path d="M208.187 533.788L252.401 577.909C252.596 578.104 252.597 578.421 252.402 578.616C252.207 578.811 251.891 578.812 251.695 578.617L207.335 534.35L207.187 534.203V261.796L117.133 285.875V549.942L116.882 550.087L84.8679 568.531L84.7751 568.573C84.5546 568.646 84.305 568.557 84.1843 568.348C84.0468 568.109 84.129 567.803 84.3679 567.665L116.133 549.364V285.107L116.504 285.009L207.558 260.661L208.187 260.493V533.788ZM253.932 131.294C255.879 131.536 257.385 133.196 257.385 135.208C257.385 137.22 255.879 138.879 253.932 139.121V395.136L339.935 481.152C340.13 481.348 340.13 481.664 339.935 481.859C339.74 482.055 339.423 482.055 339.228 481.859L253.079 395.696L252.932 395.55V139.119C250.994 138.87 249.495 137.215 249.495 135.208C249.495 133.201 250.994 131.545 252.932 131.296V49.8623L77.0993 96.9844V426.107L76.8493 426.252L14.6765 462.153L14.5837 462.195C14.3634 462.268 14.1147 462.179 13.9939 461.971C13.8558 461.732 13.9374 461.425 14.1765 461.287L76.0993 425.529V96.2168L76.4704 96.1182L253.303 48.7275L253.932 48.5596V131.294ZM314.761 332.325L456.877 474.441L456.941 474.52C457.069 474.713 457.047 474.978 456.877 475.148C456.706 475.319 456.443 475.34 456.249 475.213L456.17 475.148L313.908 332.886L313.761 332.739V-50.9238L22.7497 27.0527V373.919L22.4997 374.063L-80.1692 433.34C-80.4083 433.478 -80.7138 433.395 -80.8518 433.156C-80.9898 432.917 -80.9083 432.612 -80.6692 432.474L21.7497 373.341V26.2852L22.1208 26.1855L314.132 -52.0586L314.761 -52.2266V332.325ZM290.103 470.064C290.298 470.259 290.299 470.576 290.104 470.771C289.909 470.967 289.593 470.967 289.397 470.772L290.103 470.064ZM227.536 407.637L290.103 470.064L289.75 470.418L289.397 470.772L226.682 408.198L226.536 408.052V82.3779L98.8064 116.525V204.478C98.9727 204.456 99.1421 204.444 99.3142 204.444C101.493 204.444 103.26 206.211 103.26 208.39C103.259 210.568 101.493 212.334 99.3142 212.334C99.1421 212.334 98.9727 212.322 98.8064 212.301V430.266L98.5564 430.41L53.2966 456.482L53.2038 456.524C52.9832 456.598 52.7337 456.508 52.613 456.299C52.4755 456.06 52.5577 455.754 52.7966 455.616L97.8064 429.688V212.035C96.3759 211.443 95.369 210.034 95.3689 208.39C95.3689 206.745 96.3755 205.334 97.8064 204.742L97.8074 116.143V115.758L98.1775 115.659L226.907 81.2432L227.536 81.0752V407.637ZM277.719 351.236L388.522 462.039L388.586 462.117C388.714 462.311 388.693 462.575 388.522 462.746C388.351 462.917 388.087 462.938 387.893 462.811L387.815 462.746L276.866 351.798L276.719 351.651V2.64648L180.814 28.3438C180.488 30.1936 178.874 31.5996 176.93 31.5996C175.719 31.5995 174.635 31.0527 173.912 30.1934L49.9831 63.4004V390.976L49.7331 391.12L-30.3372 437.349C-30.5763 437.487 -30.8817 437.404 -31.0198 437.165C-31.1578 436.926 -31.0763 436.62 -30.8372 436.482L48.9831 390.397V62.6328L49.3542 62.5342L173.349 29.3086C173.116 28.8054 172.986 28.2452 172.986 27.6543C172.986 25.4756 174.752 23.7092 176.93 23.709C178.989 23.709 180.678 25.2855 180.858 27.2969L277.091 1.51172L277.719 1.34375V351.236ZM196.893 316.434C199.072 316.434 200.839 318.2 200.839 320.379C200.839 322.558 199.072 324.324 196.893 324.324C194.715 324.324 192.948 322.558 192.948 320.379C192.948 318.2 194.715 316.434 196.893 316.434ZM140.346 279.843C142.525 279.843 144.292 281.609 144.292 283.788C144.292 285.967 142.525 287.733 140.346 287.733C138.168 287.733 136.401 285.967 136.401 283.788C136.401 281.609 138.168 279.843 140.346 279.843Z" fill="url(#paint1_linear_4275_6236)"/>
<g opacity="0.6">
<rect x="26" y="264" width="60" height="60" rx="30" fill="white" fill-opacity="0.9"/>
<rect x="23" y="261" width="66" height="66" rx="33" stroke="white" stroke-opacity="0.3" stroke-width="6"/>
<path d="M64.4823 305.229H46.1744V308.972C46.1744 309.344 46.0265 309.701 45.7633 309.964C45.5001 310.227 45.1431 310.375 44.7708 310.375C44.3986 310.375 44.0416 310.227 43.7784 309.964C43.5151 309.701 43.3673 309.344 43.3673 308.972V304.623C41.8159 303.945 40.5789 302.742 39.9838 301.222L39.9108 301.031L37.4724 294.495C36.6957 292.41 38.4324 290.258 40.8914 290.258C42.4072 290.258 43.7621 291.106 44.2786 292.38L46.3334 297.444C46.5206 297.904 46.6141 298.136 46.7489 298.324C47.0854 298.776 47.5797 299.085 48.1337 299.19C48.377 299.241 48.6521 299.241 49.2004 299.241H62.2628C63.3276 299.241 63.8591 299.241 64.3045 299.057C64.549 298.955 64.7667 298.818 64.9576 298.647C65.3019 298.337 65.4834 297.889 65.8465 296.995L67.7198 292.38C68.2363 291.107 69.5912 290.258 71.107 290.258C73.566 290.258 75.3027 292.41 74.5261 294.495L72.4301 300.109C72.0652 301.089 71.8836 301.578 71.6422 301.995C70.9437 303.169 69.8888 304.09 68.6311 304.623V308.972C68.6311 309.344 68.4833 309.701 68.2201 309.964C67.9568 310.227 67.5998 310.375 67.2276 310.375C66.8554 310.375 66.4984 310.227 66.2351 309.964C65.9719 309.701 65.824 309.344 65.824 308.972V305.22C65.4741 305.229 65.0474 305.229 64.4823 305.229Z" fill="#166AF6"/>
<path opacity="0.5" d="M58.3131 278.094H53.687C51.6284 278.094 49.9891 278.094 48.7091 278.258C47.3879 278.427 46.3043 278.782 45.4416 279.606C44.5733 280.431 44.1896 281.483 44.01 282.759C43.8359 283.991 43.8359 285.557 43.8359 287.512V291.62C44.0193 291.852 44.1672 292.106 44.2795 292.38L46.3343 297.444C46.5214 297.904 46.615 298.136 46.7497 298.324C47.0862 298.776 47.5805 299.085 48.1345 299.19C48.3778 299.241 48.6529 299.241 49.2012 299.241H62.2636C63.3284 299.241 63.8599 299.241 64.3053 299.057C64.5498 298.955 64.7675 298.818 64.9584 298.647C65.3027 298.337 65.4843 297.889 65.8473 296.995L67.7206 292.38C67.8329 292.104 67.9807 291.851 68.1641 291.62V287.512C68.1641 285.557 68.1641 283.991 67.9901 282.759C67.8104 281.483 67.4268 280.431 66.5584 279.604C65.6976 278.784 64.6122 278.427 63.2929 278.257C62.011 278.094 60.3735 278.094 58.3131 278.094Z" fill="#166AF6"/>
</g>
<g opacity="0.6">
<rect x="52" y="36" width="47.0865" height="47.0865" rx="23.5432" fill="white" fill-opacity="0.9"/>
<rect x="49" y="33" width="53.0865" height="53.0865" rx="26.5432" stroke="white" stroke-opacity="0.3" stroke-width="6"/>
<path opacity="0.5" d="M63.7726 48.1629C62.21 50.1176 62.21 53.2589 62.21 59.5443C62.21 65.8296 62.21 68.9723 63.7726 70.9243C65.3353 72.8763 67.8486 72.8776 72.8766 72.8776H78.21C83.238 72.8776 85.7526 72.8776 87.314 70.9243C88.8766 68.9736 88.8766 65.8296 88.8766 59.5443C88.8766 53.2589 88.8766 50.1163 87.314 48.1629C85.7513 46.2096 83.238 46.2109 78.21 46.2109H72.8766C67.8486 46.2109 65.334 46.2109 63.7726 48.1629Z" fill="#166AF6"/>
<path fill-rule="evenodd" clip-rule="evenodd" d="M66.543 59.5443C66.543 57.8646 67.2102 56.2537 68.398 55.0659C69.5857 53.8782 71.1966 53.2109 72.8763 53.2109C74.556 53.2109 76.1669 53.8782 77.3546 55.0659C78.5424 56.2537 79.2096 57.8646 79.2096 59.5443C79.2096 61.224 78.5424 62.8349 77.3546 64.0226C76.1669 65.2103 74.556 65.8776 72.8763 65.8776C71.1966 65.8776 69.5857 65.2103 68.398 64.0226C67.2102 62.8349 66.543 61.224 66.543 59.5443Z" fill="#166AF6"/>
<path fill-rule="evenodd" clip-rule="evenodd" d="M79.2098 55.546C79.2099 54.996 79.3613 54.4567 79.6472 53.9869C79.9332 53.5172 80.3428 53.135 80.8313 52.8823C81.3197 52.6296 81.8682 52.5161 82.4169 52.554C82.9655 52.592 83.4932 52.7801 83.9422 53.0976C84.3912 53.4152 84.7442 53.8501 84.9627 54.3548C85.1813 54.8595 85.2569 55.4145 85.1813 55.9593C85.1057 56.504 84.8818 57.0175 84.5341 57.4436C84.1864 57.8697 83.7283 58.192 83.2098 58.3753V63.2313C83.2099 63.9123 83.0203 64.5799 82.6623 65.1592C82.3044 65.7385 81.7922 66.2067 81.1831 66.5113L79.9898 67.1073C79.8721 67.1672 79.7438 67.2032 79.6122 67.2132C79.4806 67.2233 79.3484 67.2072 79.223 67.1658C79.0977 67.1245 78.9818 67.0588 78.8819 66.9724C78.7821 66.8861 78.7004 66.7809 78.6414 66.6628C78.5825 66.5447 78.5475 66.4161 78.5385 66.2845C78.5295 66.1528 78.5466 66.0206 78.5889 65.8956C78.6312 65.7706 78.6978 65.6552 78.7849 65.5561C78.872 65.4569 78.9779 65.376 79.0964 65.318L80.2884 64.722C80.5653 64.5836 80.7981 64.3708 80.9608 64.1075C81.1235 63.8442 81.2097 63.5408 81.2098 63.2313V58.3753C80.6247 58.1685 80.1182 57.7853 79.76 57.2786C79.4018 56.7718 79.2096 56.1665 79.2098 55.546Z" fill="#166AF6"/>
</g>
<g opacity="0.6">
<rect x="230" y="217" width="55" height="55" rx="27.5" fill="white" fill-opacity="0.9"/>
<rect x="225.779" y="212.779" width="63.4428" height="63.4428" rx="31.7214" stroke="white" stroke-opacity="0.3" stroke-width="8.44282"/>
<path opacity="0.5" fill-rule="evenodd" clip-rule="evenodd" d="M243.78 244.501C243.78 236.923 249.922 230.781 257.5 230.781C265.077 230.781 271.219 236.923 271.219 244.501V248.431C271.379 248.375 271.549 248.357 271.716 248.381C271.883 248.404 272.043 248.467 272.18 248.564C272.318 248.662 272.431 248.791 272.508 248.941C272.586 249.091 272.626 249.257 272.626 249.426V252.24C272.626 252.52 272.515 252.788 272.317 252.986C272.119 253.184 271.851 253.295 271.571 253.295C271.291 253.295 271.023 253.184 270.825 252.986C270.627 252.788 270.516 252.52 270.516 252.24V251.537H269.109V244.501C269.109 241.422 267.886 238.469 265.708 236.292C263.531 234.115 260.579 232.892 257.5 232.892C254.421 232.892 251.468 234.115 249.291 236.292C247.114 238.469 245.891 241.422 245.891 244.501V251.537H244.484V252.24C244.484 252.52 244.373 252.788 244.175 252.986C243.977 253.184 243.708 253.295 243.428 253.295C243.149 253.295 242.88 253.184 242.682 252.986C242.484 252.788 242.373 252.52 242.373 252.24V249.426C242.373 249.257 242.414 249.091 242.491 248.941C242.569 248.791 242.681 248.662 242.819 248.564C242.957 248.467 243.116 248.404 243.283 248.381C243.451 248.357 243.621 248.375 243.78 248.431V244.501Z" fill="#166AF6"/>
<path d="M251.872 247.385C251.872 246.189 251.872 245.592 251.576 245.176C251.425 244.966 251.228 244.794 251.001 244.672C250.543 244.427 249.927 244.483 248.693 244.597C246.61 244.786 245.572 244.882 244.826 245.401C244.451 245.661 244.135 245.997 243.896 246.386C243.429 247.153 243.429 248.159 243.429 250.171V252.619C243.429 254.613 243.429 255.611 243.904 256.381C244.083 256.669 244.307 256.93 244.567 257.15C245.264 257.746 246.28 257.931 248.313 258.301C249.743 258.563 250.459 258.694 250.986 258.418C251.183 258.315 251.351 258.18 251.493 258.014C251.872 257.566 251.872 256.863 251.872 255.46V247.385ZM263.129 247.385C263.129 246.189 263.129 245.592 263.424 245.176C263.572 244.967 263.769 244.794 264 244.672C264.457 244.427 265.073 244.483 266.307 244.597C268.39 244.786 269.428 244.882 270.174 245.401C270.551 245.665 270.868 246 271.104 246.386C271.571 247.151 271.571 248.159 271.571 250.171V252.619C271.571 254.613 271.571 255.611 271.096 256.381C270.917 256.669 270.693 256.93 270.433 257.15C269.737 257.746 268.721 257.931 266.687 258.301C265.258 258.563 264.541 258.694 264.014 258.418C263.82 258.318 263.648 258.18 263.507 258.014C263.129 257.566 263.129 256.863 263.129 255.46V247.385Z" fill="#166AF6"/>
</g>
<g opacity="0.6">
<rect x="200" y="34" width="59" height="59" rx="29.5" fill="white" fill-opacity="0.9"/>
<rect x="196.415" y="30.415" width="66.17" height="66.17" rx="33.085" stroke="white" stroke-opacity="0.3" stroke-width="7.17003"/>
<path opacity="0.5" d="M231.501 52.25C235.835 52.25 238.002 52.25 239.668 53.2982C240.091 53.5634 240.48 53.8718 240.835 54.2235C242.235 55.6063 242.729 57.718 243.715 61.9398L245.46 69.4052C245.732 70.5721 245.565 71.7982 244.991 72.8499C244.417 73.9017 243.476 74.7054 242.348 75.1079C241.219 75.5105 239.982 75.4837 238.872 75.0327C237.762 74.5817 236.856 73.738 236.329 72.6624L236.124 72.2424C235.674 71.3234 234.976 70.5491 234.108 70.0076C233.24 69.4662 232.237 69.1794 231.214 69.1798H227.791C226.767 69.1782 225.764 69.4644 224.895 70.0056C224.026 70.5468 223.326 71.3213 222.876 72.2407L222.671 72.6607C222.144 73.7382 221.239 74.5838 220.128 75.0362C219.018 75.4885 217.779 75.5159 216.649 75.113C215.52 74.7101 214.578 73.9052 214.004 72.852C213.43 71.7988 213.264 70.5712 213.538 69.4034L215.283 61.9364C216.27 57.7163 216.763 55.6063 218.163 54.2218C218.517 53.8717 218.909 53.5614 219.33 53.2965C220.998 52.25 223.165 52.25 227.499 52.25H231.501Z" fill="#166AF6"/>
<path d="M224.805 59.0743C224.805 58.7348 224.67 58.4091 224.43 58.169C224.19 57.9289 223.864 57.794 223.525 57.794C223.185 57.794 222.859 57.9289 222.619 58.169C222.379 58.4091 222.244 58.7348 222.244 59.0743V60.3547H220.964C220.624 60.3547 220.299 60.4896 220.059 60.7297C219.818 60.9698 219.684 61.2955 219.684 61.6351C219.684 61.9746 219.818 62.3003 220.059 62.5404C220.299 62.7805 220.624 62.9154 220.964 62.9154H222.244V64.1958C222.244 64.5354 222.379 64.861 222.619 65.1011C222.859 65.3413 223.185 65.4762 223.525 65.4762C223.864 65.4762 224.19 65.3413 224.43 65.1011C224.67 64.861 224.805 64.5354 224.805 64.1958V62.9154H226.085C226.425 62.9154 226.751 62.7805 226.991 62.5404C227.231 62.3003 227.366 61.9746 227.366 61.6351C227.366 61.2955 227.231 60.9698 226.991 60.7297C226.751 60.4896 226.425 60.3547 226.085 60.3547H224.805V59.0743ZM234.621 60.7815C235.074 60.7815 235.508 60.6016 235.828 60.2815C236.148 59.9613 236.328 59.5271 236.328 59.0743C236.328 58.6216 236.148 58.1874 235.828 57.8672C235.508 57.547 235.074 57.3672 234.621 57.3672C234.168 57.3672 233.734 57.547 233.414 57.8672C233.094 58.1874 232.914 58.6216 232.914 59.0743C232.914 59.5271 233.094 59.9613 233.414 60.2815C233.734 60.6016 234.168 60.7815 234.621 60.7815ZM239.743 63.3422C239.743 63.795 239.563 64.2292 239.243 64.5494C238.922 64.8695 238.488 65.0494 238.035 65.0494C237.583 65.0494 237.148 64.8695 236.828 64.5494C236.508 64.2292 236.328 63.795 236.328 63.3422C236.328 62.8894 236.508 62.4552 236.828 62.1351C237.148 61.8149 237.583 61.6351 238.035 61.6351C238.488 61.6351 238.922 61.8149 239.243 62.1351C239.563 62.4552 239.743 62.8894 239.743 63.3422Z" fill="#166AF6"/>
</g>
<rect x="110" y="140" width="104" height="104" rx="52" fill="white" fill-opacity="0.3"/>
<path d="M183.999 175.179L163.297 166.192C160.903 165.152 158.977 168.59 160.829 170.6L166.631 176.902C169.552 180.077 170.507 184.928 169.05 189.207L160.242 215.036C159.283 217.85 162.539 220.013 164.24 217.698L186.737 187.058C189.658 183.08 188.258 177.032 183.995 175.183L183.999 175.179Z" fill="white"/>
<path d="M144.189 197.892L158.583 199.658C160.248 199.863 160.94 197.336 159.469 196.419L154.863 193.542C152.543 192.092 151.207 189.217 151.477 186.25L153.112 168.333C153.289 166.381 150.912 165.632 150.192 167.409L140.667 190.927C139.43 193.981 141.227 197.526 144.191 197.888L144.189 197.892Z" fill="#9FD0FB"/>
</g>
</g>
<defs>
<linearGradient id="paint0_linear_4275_6236" x1="36" y1="199" x2="323" y2="-25.5" gradientUnits="userSpaceOnUse">
<stop stop-color="#166AF6"/>
<stop offset="1" stop-color="#07ACF5"/>
</linearGradient>
<linearGradient id="paint1_linear_4275_6236" x1="188.052" y1="-53.6348" x2="188.052" y2="476.375" gradientUnits="userSpaceOnUse">
<stop stop-color="#05B1F5"/>
<stop offset="1" stop-color="#166AF6"/>
</linearGradient>
<clipPath id="clip0_4275_6236">
<rect width="323" height="356" fill="white"/>
</clipPath>
<clipPath id="clip1_4275_6236">
<rect width="323" height="356" fill="white"/>
</clipPath>
</defs>
</svg>
