<svg width="134" height="141" viewBox="0 0 134 141" fill="none" xmlns="http://www.w3.org/2000/svg">
<mask id="path-1-inside-1_1168_3071" fill="white">
<path fill-rule="evenodd" clip-rule="evenodd" d="M134 67C134 104.003 104.003 134 67 134C29.9969 134 0 104.003 0 67C0 29.9969 29.9969 0 67 0C104.003 0 134 29.9969 134 67ZM55.3764 67.0555L40.9082 27.9333C40.8742 27.8417 40.843 27.7505 40.8146 27.6597C39.6505 24.2929 42.8085 20.3247 46.5899 21.8372L85.4362 37.3754L85.4285 37.3834C93.429 40.5789 96.055 51.0363 90.5733 57.9147L83.2982 67.0439L90.557 76.1538V76.1458C96.0463 83.0322 93.4204 93.5135 85.4046 96.717L46.8761 112.132C43.6106 113.822 39.3083 110.471 40.8556 106.287L55.3764 67.0555Z"/>
</mask>
<path fill-rule="evenodd" clip-rule="evenodd" d="M134 67C134 104.003 104.003 134 67 134C29.9969 134 0 104.003 0 67C0 29.9969 29.9969 0 67 0C104.003 0 134 29.9969 134 67ZM55.3764 67.0555L40.9082 27.9333C40.8742 27.8417 40.843 27.7505 40.8146 27.6597C39.6505 24.2929 42.8085 20.3247 46.5899 21.8372L85.4362 37.3754L85.4285 37.3834C93.429 40.5789 96.055 51.0363 90.5733 57.9147L83.2982 67.0439L90.557 76.1538V76.1458C96.0463 83.0322 93.4204 93.5135 85.4046 96.717L46.8761 112.132C43.6106 113.822 39.3083 110.471 40.8556 106.287L55.3764 67.0555Z" fill="url(#paint0_linear_1168_3071)"/>
<path d="M55.3764 67.0555L58.1899 68.0969L58.5751 67.056L58.1902 66.015L55.3764 67.0555ZM40.9082 27.9333L43.722 26.8928L43.7208 26.8896L40.9082 27.9333ZM40.8146 27.6597L43.677 26.7617L43.664 26.7204L43.6499 26.6794L40.8146 27.6597ZM46.5899 21.8372L47.7041 19.0517L47.704 19.0517L46.5899 21.8372ZM85.4362 37.3754L87.6025 39.4507L90.6775 36.2408L86.5503 34.59L85.4362 37.3754ZM85.4285 37.3834L83.2622 35.3081L80.1855 38.5197L84.3157 40.1694L85.4285 37.3834ZM90.5733 57.9147L88.2272 56.0449L88.2271 56.045L90.5733 57.9147ZM83.2982 67.0439L80.9521 65.1742L79.4622 67.0437L80.952 68.9134L83.2982 67.0439ZM90.557 76.1538L88.2108 78.0233L93.557 84.733V76.1538H90.557ZM90.557 76.1458L92.9029 74.2758L87.557 67.5694V76.1458H90.557ZM85.4046 96.717L84.2913 93.9312L84.2902 93.9317L85.4046 96.717ZM46.8761 112.132L45.7617 109.347L45.6266 109.401L45.4973 109.468L46.8761 112.132ZM40.8556 106.287L38.0421 105.246L38.0418 105.246L40.8556 106.287ZM67 137C105.66 137 137 105.66 137 67H131C131 102.346 102.346 131 67 131V137ZM-3 67C-3 105.66 28.3401 137 67 137V131C31.6538 131 3 102.346 3 67H-3ZM67 -3C28.3401 -3 -3 28.3401 -3 67H3C3 31.6538 31.6538 3 67 3V-3ZM137 67C137 28.3401 105.66 -3 67 -3V3C102.346 3 131 31.6538 131 67H137ZM58.1902 66.015L43.722 26.8928L38.0945 28.9739L52.5627 68.0961L58.1902 66.015ZM43.7208 26.8896C43.7045 26.8456 43.6899 26.8029 43.677 26.7617L37.9521 28.5577C37.9961 28.6981 38.044 28.8379 38.0957 28.9771L43.7208 26.8896ZM47.704 19.0517C44.5171 17.777 41.488 18.8621 39.6316 20.8967C37.8558 22.8428 37.0002 25.8083 37.9792 28.64L43.6499 26.6794C43.4649 26.1444 43.6062 25.4423 44.0638 24.9408C44.2725 24.7121 44.4946 24.5883 44.6883 24.5377C44.8599 24.4927 45.11 24.4763 45.4758 24.6226L47.704 19.0517ZM86.5503 34.59L47.7041 19.0517L45.4757 24.6226L84.322 40.1609L86.5503 34.59ZM87.5949 39.4587L87.6025 39.4507L83.2698 35.3001L83.2622 35.3081L87.5949 39.4587ZM92.9194 59.7844C99.5989 51.403 96.4918 38.5718 86.5413 34.5974L84.3157 40.1694C90.3661 42.586 92.511 50.6696 88.2272 56.0449L92.9194 59.7844ZM85.6444 68.9135L92.9194 59.7843L88.2271 56.045L80.9521 65.1742L85.6444 68.9135ZM80.952 68.9134L88.2108 78.0233L92.9033 74.2843L85.6445 65.1743L80.952 68.9134ZM93.557 76.1538V76.1458H87.557V76.1538H93.557ZM88.2112 78.0158C92.5029 83.3998 90.3566 91.5072 84.2913 93.9312L86.5179 99.5028C96.4841 95.5198 99.5898 82.6645 92.9029 74.2758L88.2112 78.0158ZM84.2902 93.9317L45.7617 109.347L47.9906 114.918L86.519 99.5023L84.2902 93.9317ZM38.0418 105.246C35.5595 111.959 42.5161 117.767 48.255 114.797L45.4973 109.468C45.1464 109.649 44.5778 109.637 44.0566 109.172C43.6163 108.78 43.3561 108.174 43.6694 107.327L38.0418 105.246ZM52.5629 66.0142L38.0421 105.246L43.6691 107.328L58.1899 68.0969L52.5629 66.0142Z" fill="url(#paint1_linear_1168_3071)" mask="url(#path-1-inside-1_1168_3071)"/>
<g filter="url(#filter0_d_1168_3071)">
<path d="M92.7454 76.6161L46.3913 18.4407C42.8599 14.0083 36.0922 18.1505 38.0896 23.5327L56.2183 72.5531C59.2356 80.6967 57.2634 89.9309 51.2205 95.9727L39.3286 107.88C35.4854 111.724 39.4803 118.293 44.4528 116.306L87.0733 99.253C95.8975 95.7265 98.7883 84.1881 92.7454 76.6073V76.6161Z" fill="url(#paint2_linear_1168_3071)"/>
<path d="M87.1081 33.9273L44.3443 16.8221C39.3971 14.8433 35.419 21.3864 39.2454 25.212L51.23 37.2077C57.2645 43.2495 59.2366 52.4836 56.2278 60.6273L38.0317 109.788C36.0511 115.144 42.7767 119.26 46.2912 114.854L92.7633 56.5379C98.7978 48.9659 95.907 37.4539 87.0997 33.9361L87.1081 33.9273Z" fill="url(#paint3_linear_1168_3071)"/>
</g>
<defs>
<filter id="filter0_d_1168_3071" x="17.6738" y="0.45752" width="98.2769" height="140.258" filterUnits="userSpaceOnUse" color-interpolation-filters="sRGB">
<feFlood flood-opacity="0" result="BackgroundImageFix"/>
<feColorMatrix in="SourceAlpha" type="matrix" values="0 0 0 0 0 0 0 0 0 0 0 0 0 0 0 0 0 0 127 0" result="hardAlpha"/>
<feOffset dy="4"/>
<feGaussianBlur stdDeviation="10"/>
<feComposite in2="hardAlpha" operator="out"/>
<feColorMatrix type="matrix" values="0 0 0 0 0 0 0 0 0 0 0 0 0 0 0 0 0 0 0.25 0"/>
<feBlend mode="normal" in2="BackgroundImageFix" result="effect1_dropShadow_1168_3071"/>
<feBlend mode="normal" in="SourceGraphic" in2="effect1_dropShadow_1168_3071" result="shape"/>
</filter>
<linearGradient id="paint0_linear_1168_3071" x1="67" y1="0" x2="67" y2="134" gradientUnits="userSpaceOnUse">
<stop stop-color="#FFD118"/>
<stop offset="1" stop-color="#D76E09"/>
</linearGradient>
<linearGradient id="paint1_linear_1168_3071" x1="67" y1="0" x2="67" y2="134" gradientUnits="userSpaceOnUse">
<stop stop-color="#DC830D"/>
<stop offset="1" stop-color="#F9C115"/>
</linearGradient>
<linearGradient id="paint2_linear_1168_3071" x1="26.9478" y1="25.274" x2="75.758" y2="106.292" gradientUnits="userSpaceOnUse">
<stop stop-color="#D9730A"/>
<stop offset="1" stop-color="#FDCB18"/>
</linearGradient>
<linearGradient id="paint3_linear_1168_3071" x1="66.8123" y1="16.4575" x2="66.8123" y2="116.715" gradientUnits="userSpaceOnUse">
<stop stop-color="#FFC100"/>
<stop offset="1" stop-color="#CA750F"/>
</linearGradient>
</defs>
</svg>
