<svg width="192" height="48" viewBox="0 0 192 48" fill="none" xmlns="http://www.w3.org/2000/svg">
<path d="M8.032 47V39.192H18.656C20.6187 39.192 22.1547 38.616 23.264 37.464C24.3733 36.312 24.928 34.904 24.928 33.24C24.928 32.088 24.672 31.064 24.16 30.168C23.648 29.272 22.9227 28.568 21.984 28.056C21.088 27.544 19.9787 27.288 18.656 27.288H8.032V19.672H17.824C19.488 19.672 20.832 19.2667 21.856 18.456C22.88 17.6027 23.392 16.3227 23.392 14.616C23.392 12.952 22.88 11.7147 21.856 10.904C20.832 10.0507 19.488 9.624 17.824 9.624H8.032V1.816H19.744C22.6453 1.816 25.0987 2.34933 27.104 3.416C29.152 4.48266 30.7093 5.912 31.776 7.704C32.8427 9.496 33.376 11.48 33.376 13.656C33.376 16.4293 32.48 18.776 30.688 20.696C28.896 22.616 26.2507 23.9387 22.752 24.664L23.008 21.272C26.8053 21.9973 29.728 23.4693 31.776 25.688C33.8667 27.9067 34.912 30.6373 34.912 33.88C34.912 36.3547 34.2933 38.5947 33.056 40.6C31.8613 42.5627 30.112 44.12 27.808 45.272C25.5467 46.424 22.816 47 19.616 47H8.032ZM0.352 47V1.816H10.272V47H0.352ZM55.432 47.704C52.232 47.704 49.3307 47 46.728 45.592C44.168 44.1413 42.1413 42.1787 40.648 39.704C39.1547 37.2293 38.408 34.456 38.408 31.384C38.408 28.312 39.1547 25.56 40.648 23.128C42.1413 20.696 44.168 18.776 46.728 17.368C49.288 15.9173 52.1893 15.192 55.432 15.192C58.6747 15.192 61.576 15.896 64.136 17.304C66.696 18.712 68.7227 20.6533 70.216 23.128C71.7093 25.56 72.456 28.312 72.456 31.384C72.456 34.456 71.7093 37.2293 70.216 39.704C68.7227 42.1787 66.696 44.1413 64.136 45.592C61.576 47 58.6747 47.704 55.432 47.704ZM55.432 38.808C56.84 38.808 58.0773 38.5093 59.144 37.912C60.2107 37.272 61.0213 36.3973 61.576 35.288C62.1733 34.136 62.472 32.8347 62.472 31.384C62.472 29.9333 62.1733 28.6747 61.576 27.608C60.9787 26.4987 60.1467 25.6453 59.08 25.048C58.056 24.408 56.84 24.088 55.432 24.088C54.0667 24.088 52.8507 24.408 51.784 25.048C50.7173 25.6453 49.8853 26.4987 49.288 27.608C48.6907 28.7173 48.392 29.9973 48.392 31.448C48.392 32.856 48.6907 34.136 49.288 35.288C49.8853 36.3973 50.7173 37.272 51.784 37.912C52.8507 38.5093 54.0667 38.808 55.432 38.808ZM95.251 47.64C93.1603 47.64 91.2403 47.2133 89.491 46.36C87.7417 45.464 86.3123 44.2907 85.203 42.84C84.0937 41.3467 83.4537 39.6827 83.283 37.848V24.728C83.4537 22.8933 84.0937 21.272 85.203 19.864C86.3123 18.4133 87.7417 17.2827 89.491 16.472C91.2403 15.6613 93.1603 15.256 95.251 15.256C98.195 15.256 100.798 15.96 103.059 17.368C105.363 18.776 107.155 20.696 108.435 23.128C109.758 25.56 110.419 28.3333 110.419 31.448C110.419 34.5627 109.758 37.336 108.435 39.768C107.155 42.2 105.363 44.12 103.059 45.528C100.798 46.936 98.195 47.64 95.251 47.64ZM77.331 47V0.535999H87.123V23.512L85.523 31.064L86.995 38.616V47H77.331ZM93.523 38.808C94.8883 38.808 96.083 38.488 97.107 37.848C98.1737 37.208 99.0057 36.3333 99.603 35.224C100.2 34.1147 100.499 32.856 100.499 31.448C100.499 29.9973 100.2 28.7173 99.603 27.608C99.0057 26.4987 98.1737 25.6453 97.107 25.048C96.083 24.408 94.8883 24.088 93.523 24.088C92.1577 24.088 90.9417 24.408 89.875 25.048C88.8083 25.6453 87.9763 26.4987 87.379 27.608C86.8243 28.7173 86.547 29.9973 86.547 31.448C86.547 32.8987 86.8457 34.1787 87.443 35.288C88.0403 36.3973 88.851 37.272 89.875 37.912C90.9417 38.5093 92.1577 38.808 93.523 38.808ZM115.394 47V15.896H125.186V47H115.394ZM120.322 11.608C118.786 11.608 117.506 11.096 116.482 10.072C115.5 9.00533 115.01 7.72533 115.01 6.232C115.01 4.696 115.5 3.416 116.482 2.392C117.506 1.368 118.786 0.855999 120.322 0.855999C121.858 0.855999 123.116 1.368 124.098 2.392C125.079 3.416 125.57 4.696 125.57 6.232C125.57 7.72533 125.079 9.00533 124.098 10.072C123.116 11.096 121.858 11.608 120.322 11.608ZM147.441 47.704C144.07 47.704 141.062 47.0213 138.417 45.656C135.814 44.248 133.766 42.3067 132.273 39.832C130.78 37.3573 130.033 34.5627 130.033 31.448C130.033 28.3333 130.758 25.56 132.209 23.128C133.702 20.6533 135.708 18.712 138.225 17.304C140.742 15.896 143.58 15.192 146.737 15.192C149.809 15.192 152.518 15.8533 154.865 17.176C157.212 18.4987 159.046 20.3333 160.369 22.68C161.734 25.0267 162.417 27.7147 162.417 30.744C162.417 31.2987 162.374 31.896 162.289 32.536C162.246 33.1333 162.14 33.8373 161.969 34.648L135.153 34.712V27.992L157.809 27.928L153.585 30.744C153.542 28.952 153.265 27.48 152.753 26.328C152.241 25.1333 151.473 24.2373 150.449 23.64C149.468 23 148.252 22.68 146.801 22.68C145.265 22.68 143.921 23.0427 142.769 23.768C141.66 24.4507 140.785 25.432 140.145 26.712C139.548 27.992 139.249 29.5493 139.249 31.384C139.249 33.2187 139.569 34.7973 140.209 36.12C140.892 37.4 141.83 38.4027 143.025 39.128C144.262 39.8107 145.713 40.152 147.377 40.152C148.913 40.152 150.3 39.896 151.537 39.384C152.774 38.8293 153.862 38.0187 154.801 36.952L160.177 42.328C158.641 44.12 156.785 45.464 154.609 46.36C152.433 47.256 150.044 47.704 147.441 47.704ZM178.472 47.768C176.637 47.768 174.824 47.5333 173.032 47.064C171.282 46.5947 169.64 45.9333 168.104 45.08C166.61 44.184 165.33 43.16 164.264 42.008L169.832 36.376C170.856 37.4853 172.072 38.36 173.48 39C174.888 39.5973 176.424 39.896 178.088 39.896C179.24 39.896 180.114 39.7253 180.712 39.384C181.352 39.0427 181.672 38.5733 181.672 37.976C181.672 37.208 181.288 36.632 180.52 36.248C179.794 35.8213 178.856 35.4587 177.704 35.16C176.552 34.8187 175.336 34.456 174.056 34.072C172.775 33.688 171.56 33.1547 170.408 32.472C169.256 31.7893 168.317 30.8507 167.592 29.656C166.866 28.4187 166.504 26.8613 166.504 24.984C166.504 22.9787 167.016 21.2507 168.04 19.8C169.064 18.3067 170.514 17.1333 172.392 16.28C174.269 15.4267 176.466 15 178.984 15C181.629 15 184.061 15.4693 186.28 16.408C188.541 17.304 190.376 18.648 191.784 20.44L186.216 26.072C185.234 24.92 184.125 24.1093 182.888 23.64C181.693 23.1707 180.52 22.936 179.368 22.936C178.258 22.936 177.426 23.1067 176.872 23.448C176.317 23.7467 176.04 24.1947 176.04 24.792C176.04 25.432 176.402 25.944 177.128 26.328C177.853 26.712 178.792 27.0533 179.944 27.352C181.096 27.6507 182.312 28.0133 183.592 28.44C184.872 28.8667 186.088 29.4427 187.24 30.168C188.392 30.8933 189.33 31.8747 190.056 33.112C190.781 34.3067 191.144 35.8853 191.144 37.848C191.144 40.8773 189.992 43.288 187.688 45.08C185.426 46.872 182.354 47.768 178.472 47.768Z" fill="url(#paint0_linear_1168_3060)"/>
<defs>
<linearGradient id="paint0_linear_1168_3060" x1="94.5" y1="-17" x2="94.5" y2="64" gradientUnits="userSpaceOnUse">
<stop stop-color="#DB7D0C"/>
<stop offset="1" stop-color="#FAC417"/>
</linearGradient>
</defs>
</svg>
