<svg width="12" height="12" viewBox="0 0 12 12" fill="none" xmlns="http://www.w3.org/2000/svg">
<path fill-rule="evenodd" clip-rule="evenodd" d="M6 12C9.31371 12 12 9.31371 12 6C12 2.68629 9.31371 0 6 0C2.68629 0 0 2.68629 0 6C0 9.31371 2.68629 12 6 12ZM5.39635 1.2C6.84015 1.97419 9.59987 3.9437 9.59992 4.87742C9.59997 5.80645 7.64685 7.23871 5.39635 8.4C5.55439 8.20355 5.72702 7.99492 5.90476 7.78011L5.9048 7.78005C6.77778 6.72498 7.77426 5.52064 7.77426 4.87742C7.77426 4.30209 7.27181 3.6499 6.34412 2.44576L6.34412 2.44575C6.06578 2.08447 5.74916 1.67349 5.39635 1.2ZM6.2035 3.6C4.7597 4.37419 1.99997 6.3437 1.99992 7.27742C1.99987 8.20645 3.95299 9.63871 6.2035 10.8C6.04551 10.6036 5.87295 10.3951 5.69528 10.1803L5.69509 10.1801L5.69504 10.1801C4.82207 9.12498 3.82558 7.92064 3.82558 7.27742C3.82558 6.70209 4.32804 6.04989 5.25572 4.84575L5.25574 4.84574C5.53408 4.48445 5.85069 4.07349 6.2035 3.6Z" fill="url(#paint0_linear_1548_5459)"/>
<defs>
<linearGradient id="paint0_linear_1548_5459" x1="5.2" y1="0.6" x2="8.6" y2="12" gradientUnits="userSpaceOnUse">
<stop stop-color="#C6A626"/>
<stop offset="0.5" stop-color="#FFE683"/>
<stop offset="1" stop-color="#FFD118"/>
</linearGradient>
</defs>
</svg>
