<svg width="46" height="40" viewBox="0 0 46 40" fill="none" xmlns="http://www.w3.org/2000/svg">
<path d="M27.5961 14.7622C27.4142 14.8319 27.1704 14.864 26.9811 14.8587C27.0642 14.6576 27.224 14.36 27.542 13.9177C28.7013 12.3468 30.2729 11.2129 32.0287 10.6231C31.2233 12.245 29.2877 14.0947 27.5934 14.7595H27.5961L27.5961 14.7622ZM44.3905 12.8481C42.7545 9.70099 39.5308 7.66633 35.787 7.40898C35.66 7.39826 35.5437 7.39022 35.422 7.38754C35.2838 4.60229 33.7694 2.32101 31.0061 1.0718C22.6922 -2.68922 8.16376 3.80612 0.231185 14.9552L3.74262 14.9096C11.2643 5.70406 23.6236 0.589276 29.7973 3.57826C31.6012 4.44949 32.5783 5.78984 32.642 7.602C29.7476 8.17835 27.1242 9.8243 25.2962 12.3039C23.6628 14.5182 24.0095 15.8693 24.592 16.6172C25.5859 17.8986 27.5864 17.7404 28.6127 17.3356C31.3279 16.2714 34.1829 13.3199 34.9621 10.7706C35.0264 10.5615 35.0852 10.3524 35.1359 10.1433C35.2738 10.1487 35.4225 10.1567 35.5603 10.1674C38.3418 10.3631 40.7845 11.4702 42.4152 13.4781C48.0669 20.397 39.7191 24.3725 39.5034 24.5843L25.1711 30.9375C22.0362 32.0554 18.671 30.1145 18.1233 26.8762L17.4525 10.2773C17.3918 9.83502 17.126 9.34981 16.5261 9.56159L14.3575 10.6151C13.8902 10.8215 13.6749 11.2746 13.6895 11.7303L13.56 33.066C13.6817 37.8484 18.9778 40.6765 23.1109 38.154L33.3251 31.9213L33.355 31.9079C34.5977 31.2297 35.9142 30.4657 37.3019 29.6106C40.1181 27.8842 48.9402 21.5658 44.3904 12.8535L44.3905 12.8481Z" fill="url(#paint0_linear_2840_3294)"/>
<defs>
<linearGradient id="paint0_linear_2840_3294" x1="33.3297" y1="-8.1531e-07" x2="12.889" y2="39.2928" gradientUnits="userSpaceOnUse">
<stop stop-color="white"/>
<stop offset="1" stop-color="#88B8F6"/>
</linearGradient>
</defs>
</svg>
