<svg width="24" height="25" viewBox="0 0 24 25" fill="none" xmlns="http://www.w3.org/2000/svg">
<path d="M6.96 2.50024C7.378 2.50024 7.716 2.81024 7.716 3.19224V4.59024C8.386 4.57824 9.138 4.57824 9.984 4.57824H14.016C14.862 4.57824 15.613 4.57824 16.284 4.59024V3.19224C16.284 2.81024 16.622 2.50024 17.04 2.50024C17.458 2.50024 17.796 2.81024 17.796 3.19224V4.65024C19.246 4.75624 20.199 5.01824 20.899 5.65824C21.599 6.29924 21.884 7.17124 22 8.50024V9.50024H2V8.50024C2.116 7.17124 2.401 6.30024 3.101 5.65824C3.801 5.01824 4.753 4.75624 6.204 4.65024V3.19224C6.204 2.81024 6.543 2.50024 6.96 2.50024Z" fill="url(#paint0_linear_432_17438)"/>
<path opacity="0.5" d="M21.9998 14.5V12.5C21.9998 11.661 21.9868 10.165 21.9738 9.5H2.00578C1.99278 10.165 2.00578 11.661 2.00578 12.5V14.5C2.00578 18.271 2.00578 20.157 3.17578 21.328C4.34878 22.5 6.23378 22.5 10.0038 22.5H14.0038C17.7738 22.5 19.6578 22.5 20.8298 21.328C22.0018 20.156 21.9998 18.271 21.9998 14.5Z" fill="#91BAFF"/>
<path d="M18 17C18 17.3978 17.842 17.7794 17.5607 18.0607C17.2794 18.342 16.8978 18.5 16.5 18.5C16.1022 18.5 15.7206 18.342 15.4393 18.0607C15.158 17.7794 15 17.3978 15 17C15 16.6022 15.158 16.2206 15.4393 15.9393C15.7206 15.658 16.1022 15.5 16.5 15.5C16.8978 15.5 17.2794 15.658 17.5607 15.9393C17.842 16.2206 18 16.6022 18 17Z" fill="#166AF6"/>
<defs>
<linearGradient id="paint0_linear_432_17438" x1="12" y1="2.50024" x2="10.5143" y2="10.9902" gradientUnits="userSpaceOnUse">
<stop stop-color="#05B1F5"/>
<stop offset="1" stop-color="#166DF6"/>
</linearGradient>
</defs>
</svg>
