<svg width="64" height="64" viewBox="0 0 64 64" fill="none" xmlns="http://www.w3.org/2000/svg">
<rect width="64" height="64" rx="32" fill="#C9DDFF" fill-opacity="0.4"/>
<g clip-path="url(#clip0_78_36608)">
<path d="M22.3912 40.5438L33.2348 45.2513C34.4893 45.7959 35.498 43.9951 34.5278 42.9423L31.4888 39.641C29.9586 37.9782 29.4586 35.4369 30.2215 33.1957L34.8355 19.6661C35.3377 18.1921 33.6323 17.0594 32.7412 18.272L20.9572 34.3211C19.427 36.405 20.16 39.5732 22.3933 40.5413L22.3912 40.5438Z" fill="url(#paint0_linear_78_36608)"/>
<path d="M43.2436 28.6489L35.7041 27.7235C34.8319 27.6164 34.4694 28.9397 35.2397 29.4202L37.6527 30.9274C38.8678 31.6865 39.5673 33.1925 39.4263 34.7469L38.5697 44.1321C38.4767 45.1544 39.7218 45.547 40.0993 44.6161L45.0885 32.2969C45.7363 30.6973 44.7952 28.8405 43.2426 28.6508L43.2436 28.6489Z" fill="#ADCCFF"/>
</g>
<defs>
<linearGradient id="paint0_linear_78_36608" x1="27.5376" y1="45.3516" x2="44.7419" y2="26.9235" gradientUnits="userSpaceOnUse">
<stop stop-color="#05B1F5"/>
<stop offset="1" stop-color="#166DF6"/>
</linearGradient>
<clipPath id="clip0_78_36608">
<rect width="33.5238" height="33.5238" fill="white" transform="translate(48.7617 48.7619) rotate(180)"/>
</clipPath>
</defs>
</svg>
