<svg width="64" height="64" viewBox="0 0 64 64" fill="none" xmlns="http://www.w3.org/2000/svg">
<rect width="64" height="64" rx="32" fill="#C9DDFF" fill-opacity="0.4"/>
<path d="M25 23.6445C25 26.1831 27.8324 28.8597 30.1692 30.6352C31.4804 31.6297 32.1352 32.1286 33.2051 32.1286C34.2751 32.1286 34.9298 31.6297 36.241 30.6352C38.5778 28.858 41.4103 26.1815 41.4103 23.6445C41.4103 19.066 36.8974 17.3544 33.2051 20.8925C29.5128 17.3544 25 19.066 25 23.6445Z" fill="url(#paint0_linear_432_17574)"/>
<path opacity="0.5" d="M22.5818 47.4058H22.1551C20.6076 47.4058 19.8347 47.4058 19.3539 46.925C18.873 46.4474 18.873 45.6729 18.873 44.1254V42.3006C18.873 41.4505 18.873 41.0255 19.0913 40.6448C19.3096 40.264 19.6394 40.0737 20.2991 39.6897C24.6413 37.1641 30.8066 35.743 34.9206 38.1964C35.1974 38.3615 35.4436 38.5628 35.6591 38.8002C35.8799 39.0416 36.0501 39.3248 36.1595 39.633C36.2689 39.9413 36.3153 40.2684 36.296 40.5949C36.2767 40.9215 36.1921 41.2408 36.0472 41.5341C35.9023 41.8273 35.7 42.0885 35.4523 42.3022C35.255 42.4895 35.0142 42.6249 34.7516 42.696C34.9485 42.6731 35.1373 42.6474 35.3178 42.6189C36.8127 42.381 38.0681 41.5801 39.2168 40.712L42.1838 38.472C42.7134 38.0877 43.351 37.8808 44.0054 37.8808C44.6597 37.8808 45.2973 38.0877 45.8269 38.472C46.7672 39.1826 47.056 40.3527 46.4603 41.3077C45.7662 42.4204 44.7881 43.8431 43.8495 44.7129C42.9108 45.5826 41.5094 46.3605 40.3672 46.9118C39.1003 47.5239 37.7022 47.8751 36.2794 48.1065C33.3945 48.5726 30.3881 48.5004 27.5327 47.9129C25.9037 47.5776 24.2449 47.4066 22.5818 47.4058Z" fill="#166AF6"/>
<defs>
<linearGradient id="paint0_linear_432_17574" x1="33.2051" y1="19" x2="27.5461" y2="33.1471" gradientUnits="userSpaceOnUse">
<stop stop-color="#05B1F5"/>
<stop offset="1" stop-color="#166DF6"/>
</linearGradient>
</defs>
</svg>
