<svg width="54" height="54" viewBox="0 0 54 54" fill="none" xmlns="http://www.w3.org/2000/svg">
<rect x="0.496766" y="0.496766" width="53.0065" height="53.0065" rx="26.5032" fill="#FDA100"/>
<rect x="0.496766" y="0.496766" width="53.0065" height="53.0065" rx="26.5032" stroke="#DB967A" stroke-width="0.993532"/>
<mask id="path-2-inside-1_432_16544" fill="white">
<path d="M27 4.96765C39.1681 4.96765 49.0322 14.8318 49.0322 26.9999C49.0322 39.168 39.1681 49.0321 27 49.0321C14.8319 49.032 4.96777 39.168 4.96777 26.9999C4.96784 14.8318 14.832 4.96771 27 4.96765Z"/>
</mask>
<path d="M27 4.96765C39.1681 4.96765 49.0322 14.8318 49.0322 26.9999C49.0322 39.168 39.1681 49.0321 27 49.0321C14.8319 49.032 4.96777 39.168 4.96777 26.9999C4.96784 14.8318 14.832 4.96771 27 4.96765Z" fill="url(#paint0_linear_432_16544)"/>
<path d="M27 4.96765V3.98113H27L27 4.96765ZM49.0322 26.9999H50.0187V26.9999L49.0322 26.9999ZM27 49.0321L27 50.0186H27V49.0321ZM4.96777 26.9999L3.98125 26.9999V26.9999H4.96777ZM27 4.96765V5.95417C38.6232 5.95417 48.0456 15.3766 48.0457 26.9999L49.0322 26.9999L50.0187 26.9999C50.0187 14.287 39.7129 3.98113 27 3.98113V4.96765ZM49.0322 26.9999H48.0457C48.0457 38.6232 38.6233 48.0456 27 48.0456V49.0321V50.0186C39.713 50.0186 50.0187 39.7128 50.0187 26.9999H49.0322ZM27 49.0321L27 48.0456C15.3768 48.0455 5.9543 38.6231 5.9543 26.9999H4.96777H3.98125C3.98125 39.7128 14.2871 50.0186 27 50.0186L27 49.0321ZM4.96777 26.9999L5.9543 26.9999C5.95436 15.3767 15.3768 5.95423 27 5.95417L27 4.96765L27 3.98113C14.2871 3.98119 3.98132 14.287 3.98125 26.9999L4.96777 26.9999Z" fill="url(#paint1_linear_432_16544)" mask="url(#path-2-inside-1_432_16544)"/>
<g filter="url(#filter0_i_432_16544)">
<path d="M36.029 20.226L26.658 16.1578C25.5739 15.6871 24.7022 17.2433 25.5407 18.1532L28.1669 21.0061C29.4893 22.4431 29.9214 24.6393 29.2621 26.5761L25.2747 38.2683C24.8407 39.5421 26.3145 40.521 27.0846 39.4731L37.2683 25.6035C38.5906 23.8026 37.9571 21.0647 36.0272 20.2281L36.029 20.226Z" fill="#C16F09"/>
<path d="M18.008 30.5055L24.5236 31.3053C25.2774 31.3978 25.5906 30.2542 24.925 29.839L22.8397 28.5365C21.7896 27.8804 21.1851 26.579 21.3069 25.2357L22.0472 17.1251C22.1276 16.2416 21.0515 15.9023 20.7253 16.7068L16.4137 27.3529C15.8539 28.7353 16.6672 30.3399 18.0089 30.5039L18.008 30.5055Z" fill="#C16F09"/>
</g>
<defs>
<filter id="filter0_i_432_16544" x="16.2344" y="16.071" width="21.7324" height="23.8447" filterUnits="userSpaceOnUse" color-interpolation-filters="sRGB">
<feFlood flood-opacity="0" result="BackgroundImageFix"/>
<feBlend mode="normal" in="SourceGraphic" in2="BackgroundImageFix" result="shape"/>
<feColorMatrix in="SourceAlpha" type="matrix" values="0 0 0 0 0 0 0 0 0 0 0 0 0 0 0 0 0 0 127 0" result="hardAlpha"/>
<feOffset dx="-0.993532" dy="0.993532"/>
<feComposite in2="hardAlpha" operator="arithmetic" k2="-1" k3="1"/>
<feColorMatrix type="matrix" values="0 0 0 0 0 0 0 0 0 0 0 0 0 0 0 0 0 0 0.25 0"/>
<feBlend mode="normal" in2="shape" result="effect1_innerShadow_432_16544"/>
</filter>
<linearGradient id="paint0_linear_432_16544" x1="27.0001" y1="4.96765" x2="27.0001" y2="49.0323" gradientUnits="userSpaceOnUse">
<stop stop-color="#FFD118"/>
<stop offset="1" stop-color="#D76E09"/>
</linearGradient>
<linearGradient id="paint1_linear_432_16544" x1="27.0001" y1="4.96765" x2="27.0001" y2="49.0323" gradientUnits="userSpaceOnUse">
<stop stop-color="#DC830D"/>
<stop offset="1" stop-color="#F9C115"/>
</linearGradient>
</defs>
</svg>
