<svg width="64" height="64" viewBox="0 0 64 64" fill="none" xmlns="http://www.w3.org/2000/svg">
<rect width="64.0009" height="64.0009" rx="32.0005" fill="#C9DDFF" fill-opacity="0.4"/>
<path d="M24.6693 17.4546C25.2773 17.4546 25.769 17.9055 25.769 18.4612V20.4947C26.7436 20.4772 27.8374 20.4772 29.068 20.4772H34.9329C36.1634 20.4772 37.2558 20.4772 38.2319 20.4947V18.4612C38.2319 17.9055 38.7235 17.4546 39.3315 17.4546C39.9395 17.4546 40.4312 17.9055 40.4312 18.4612V20.5819C42.5403 20.7361 43.9266 21.1172 44.9448 22.0482C45.963 22.9806 46.3775 24.2489 46.5463 26.1821V27.6367H17.4546V26.1821C17.6233 24.2489 18.0379 22.982 19.0561 22.0482C20.0743 21.1172 21.4591 20.7361 23.5697 20.5819V18.4612C23.5697 17.9055 24.0628 17.4546 24.6693 17.4546Z" fill="url(#paint0_linear_432_14922)"/>
<path opacity="0.5" d="M46.5464 34.9095V32.0003C46.5464 30.78 46.5275 28.6039 46.5086 27.6366H17.4635C17.4446 28.6039 17.4635 30.78 17.4635 32.0003V34.9095C17.4635 40.3947 17.4635 43.1381 19.1653 44.8414C20.8716 46.5462 23.6135 46.5462 29.0972 46.5462H34.9156C40.3994 46.5462 43.1398 46.5462 44.8446 44.8414C46.5493 43.1366 46.5464 40.3947 46.5464 34.9095Z" fill="#91BAFF"/>
<path d="M40.728 38.546C40.728 39.1247 40.4981 39.6796 40.089 40.0888C39.6798 40.498 39.1248 40.7279 38.5461 40.7279C37.9675 40.7279 37.4125 40.498 37.0033 40.0888C36.5941 39.6796 36.3643 39.1247 36.3643 38.546C36.3643 37.9673 36.5941 37.4124 37.0033 37.0032C37.4125 36.594 37.9675 36.3641 38.5461 36.3641C39.1248 36.3641 39.6798 36.594 40.089 37.0032C40.4981 37.4124 40.728 37.9673 40.728 38.546Z" fill="#166AF6"/>
<defs>
<linearGradient id="paint0_linear_432_14922" x1="32.0004" y1="17.4546" x2="29.8393" y2="29.804" gradientUnits="userSpaceOnUse">
<stop stop-color="#05B1F5"/>
<stop offset="1" stop-color="#166DF6"/>
</linearGradient>
</defs>
</svg>
