<svg width="40" height="40" viewBox="0 0 40 40" fill="none" xmlns="http://www.w3.org/2000/svg">
<circle cx="20" cy="20" r="20" fill="#FFFAEF"/>
<path d="M26.8171 27.7909C26.3475 26.2945 25.4255 24.9892 24.1839 24.0632C22.9423 23.1371 21.4453 22.6382 19.9085 22.6382C18.3718 22.6382 16.8747 23.1371 15.6331 24.0632C14.3916 24.9892 13.4695 26.2945 13 27.7909M19.9085 19.431C20.8721 19.431 21.7962 19.0396 22.4776 18.3428C23.159 17.646 23.5417 16.7009 23.5417 15.7155C23.5417 14.7301 23.159 13.785 22.4776 13.0882C21.7962 12.3915 20.8721 12 19.9085 12C18.945 12 18.0208 12.3915 17.3395 13.0882C16.6581 13.785 16.2753 14.7301 16.2753 15.7155C16.2753 16.7009 16.6581 17.646 17.3395 18.3428C18.0208 19.0396 18.945 19.431 19.9085 19.431Z" stroke="#07347E" stroke-width="1.5" stroke-linecap="round" stroke-linejoin="round"/>
</svg>
