<svg width="64" height="64" viewBox="0 0 64 64" fill="none" xmlns="http://www.w3.org/2000/svg">
<rect x="64" y="64" width="64" height="64" rx="32" transform="rotate(180 64 64)" fill="#E4EFFF"/>
<g clip-path="url(#clip0_432_15854)">
<path d="M41.6093 23.4562L30.7657 18.7487C29.5112 18.2041 28.5025 20.0048 29.4727 21.0576L32.5117 24.359C34.0418 26.0217 34.5419 28.5631 33.779 30.8043L29.165 44.3339C28.6628 45.8079 30.3682 46.9406 31.2593 45.728L43.0433 29.6788C44.5735 27.5949 43.8404 24.4267 41.6072 23.4586L41.6093 23.4562Z" fill="url(#paint0_linear_432_15854)"/>
<path d="M20.7564 35.3511L28.2959 36.2765C29.1681 36.3835 29.5306 35.0603 28.7603 34.5798L26.3473 33.0726C25.1322 32.3134 24.4327 30.8075 24.5737 29.2531L25.4303 19.8679C25.5233 18.8455 24.2782 18.453 23.9007 19.3839L18.9115 31.703C18.2637 33.3026 19.2048 35.1595 20.7574 35.3492L20.7564 35.3511Z" fill="#ADCCFF"/>
</g>
<defs>
<linearGradient id="paint0_linear_432_15854" x1="36.4629" y1="18.6483" x2="19.2585" y2="37.0765" gradientUnits="userSpaceOnUse">
<stop stop-color="#05B1F5"/>
<stop offset="1" stop-color="#166DF6"/>
</linearGradient>
<clipPath id="clip0_432_15854">
<rect width="33.5238" height="33.5238" fill="white" transform="translate(15.2383 15.2382)"/>
</clipPath>
</defs>
</svg>
