<svg width="64" height="64" viewBox="0 0 64 64" fill="none" xmlns="http://www.w3.org/2000/svg">
<rect width="64" height="64" rx="32" fill="#C9DDFF" fill-opacity="0.4"/>
<path d="M46.5454 21.8181C46.5454 22.9754 46.0856 24.0853 45.2673 24.9037C44.449 25.722 43.3391 26.1817 42.1818 26.1817C41.0244 26.1817 39.9145 25.722 39.0962 24.9037C38.2779 24.0853 37.8181 22.9754 37.8181 21.8181C37.8181 20.6608 38.2779 19.5509 39.0962 18.7325C39.9145 17.9142 41.0244 17.4545 42.1818 17.4545C43.3391 17.4545 44.449 17.9142 45.2673 18.7325C46.0856 19.5509 46.5454 20.6608 46.5454 21.8181Z" fill="#166AF6"/>
<path opacity="0.5" d="M37.2539 17.5097C35.7673 17.4545 34.035 17.4545 32 17.4545C25.1433 17.4545 21.715 17.4545 19.584 19.5839C17.4546 21.7163 17.4546 25.1432 17.4546 31.9999C17.4546 38.8567 17.4546 42.285 19.584 44.4145C21.7164 46.5454 25.1433 46.5454 32 46.5454C38.8568 46.5454 42.2851 46.5454 44.4146 44.4145C46.5455 42.2865 46.5455 38.8567 46.5455 31.9999C46.5455 29.965 46.5455 28.2326 46.4902 26.7461C45.2406 27.8402 43.6217 28.4184 41.9617 28.3634C40.3016 28.3084 38.7246 27.6243 37.5501 26.4499C36.3756 25.2754 35.6916 23.6983 35.6366 22.0383C35.5816 20.3783 36.1597 18.7594 37.2539 17.5097Z" fill="#91BAFF"/>
<path d="M19.5855 44.416C21.715 46.5455 25.1433 46.5455 32 46.5455C38.8568 46.5455 42.2866 46.5455 44.416 44.4146C46.3899 42.4422 46.5353 39.3542 46.5455 33.4546H41.9491C40.6328 33.4546 39.9739 33.4546 39.3964 33.7208C38.8175 33.987 38.3884 34.4873 37.5317 35.4866L36.6517 36.5135C35.7935 37.5128 35.3659 38.0131 34.787 38.2793C34.208 38.5455 33.5506 38.5455 32.2342 38.5455H31.7673C30.451 38.5455 29.792 38.5455 29.2131 38.2793C28.6342 38.0131 28.2066 37.5128 27.3499 36.5135L26.4684 35.4866C25.6117 34.4873 25.184 33.987 24.6051 33.7208C24.0262 33.4546 23.3688 33.4546 22.051 33.4546H17.4546C17.4648 39.3528 17.6102 42.4437 19.5855 44.416Z" fill="url(#paint0_linear_432_14912)"/>
<defs>
<linearGradient id="paint0_linear_432_14912" x1="32" y1="33.4546" x2="28.4956" y2="49.0297" gradientUnits="userSpaceOnUse">
<stop stop-color="#05B1F5"/>
<stop offset="1" stop-color="#166DF6"/>
</linearGradient>
</defs>
</svg>
