<svg width="64" height="64" viewBox="0 0 64 64" fill="none" xmlns="http://www.w3.org/2000/svg">
<rect width="64" height="64" rx="32" fill="#C9DDFF" fill-opacity="0.4"/>
<path opacity="0.6" d="M43.185 44.139C45.2518 43.0128 46.494 41.5663 46.494 39.9908C46.494 38.3212 45.0982 36.7964 42.8038 35.6427C40.15 34.3093 36.2932 33.4686 32.0002 33.4686C27.7071 33.4686 23.8503 34.3093 21.1965 35.6427C18.9021 36.7964 17.5063 38.3212 17.5063 39.9908C17.5063 41.6605 18.9021 43.1853 21.1965 44.339C23.8503 45.6724 27.7071 46.5131 32.0002 46.5131C36.5034 46.5131 40.5254 45.5898 43.185 44.139Z" fill="#BAD5FF"/>
<path fill-rule="evenodd" clip-rule="evenodd" d="M28.0142 20.4249C28.0142 19.3678 28.4341 18.354 29.1816 17.6066C29.9291 16.8591 30.9429 16.4391 32 16.4391C33.0571 16.4391 34.0709 16.8591 34.8183 17.6066C35.5658 18.354 35.9858 19.3678 35.9858 20.4249C35.9858 21.482 35.5658 22.4958 34.8183 23.2433C34.0709 23.9908 33.0571 24.4107 32 24.4107C30.9429 24.4107 29.9291 23.9908 29.1816 23.2433C28.4341 22.4958 28.0142 21.482 28.0142 20.4249Z" fill="url(#paint0_linear_432_15448)"/>
<path d="M26.5259 31.4016L23.3735 30.3508C22.8333 30.1726 22.3822 29.7939 22.113 29.2929C21.8439 28.7919 21.7772 28.2066 21.9269 27.6579C22.0765 27.1092 22.431 26.6388 22.9172 26.3438C23.4035 26.0487 23.9844 25.9515 24.5402 26.0722L27.2912 26.6621L27.5955 26.7259C30.6038 27.3488 33.71 27.327 36.7092 26.6621L39.4587 26.0722C40.0149 25.9503 40.5967 26.0467 41.0838 26.3415C41.571 26.6363 41.9262 27.107 42.0762 27.6563C42.2262 28.2056 42.1594 28.7915 41.8897 29.293C41.62 29.7944 41.1679 30.1731 40.6269 30.3508L37.4745 31.4016C37.0933 31.5291 36.9035 31.5929 36.76 31.6813C36.5211 31.8286 36.3302 32.042 36.2103 32.2957C36.0904 32.5493 36.0467 32.8324 36.0846 33.1104C36.1077 33.2771 36.1802 33.464 36.3237 33.8394L38.1311 38.5383C38.3255 39.0409 38.3227 39.5984 38.1232 40.0989C37.9237 40.5995 37.5423 41.0061 37.0556 41.2372C36.5688 41.4683 36.0126 41.5068 35.4987 41.345C34.9847 41.1831 34.5509 40.8329 34.2844 40.3645L32.0002 36.3671L29.716 40.3631C29.4495 40.8314 29.0157 41.1816 28.5017 41.3435C27.9878 41.5054 27.4316 41.4669 26.9448 41.2358C26.4581 41.0047 26.0767 40.5981 25.8772 40.0975C25.6777 39.5969 25.6749 39.0394 25.8693 38.5369L27.6767 33.8394C27.8216 33.464 27.8927 33.2771 27.9158 33.1104C27.9537 32.8324 27.91 32.5493 27.7901 32.2957C27.6702 32.042 27.4793 31.8286 27.2404 31.6813C27.0969 31.5929 26.9071 31.5291 26.5259 31.4016Z" fill="url(#paint1_linear_432_15448)"/>
<defs>
<linearGradient id="paint0_linear_432_15448" x1="32" y1="16.4391" x2="28.0142" y2="24.4107" gradientUnits="userSpaceOnUse">
<stop stop-color="#05B1F5"/>
<stop offset="1" stop-color="#166DF6"/>
</linearGradient>
<linearGradient id="paint1_linear_432_15448" x1="32.0016" y1="26.0207" x2="25.6031" y2="42.8694" gradientUnits="userSpaceOnUse">
<stop stop-color="#05B1F5"/>
<stop offset="1" stop-color="#166DF6"/>
</linearGradient>
</defs>
</svg>
