<svg width="64" height="64" viewBox="0 0 64 64" fill="none" xmlns="http://www.w3.org/2000/svg">
<!-- Circle background -->
<rect width="64" height="64" rx="32" fill="#C9DDFF" fill-opacity="0.4"/>

<g clip-path="url(#clip0_person_plus)">
  <!-- Person (your exact design scaled to fit) -->
  <g transform="translate(12, 12) scale(1.67)">
    <path d="M12 10C14.2091 10 16 8.20914 16 6C16 3.79086 14.2091 2 12 2C9.79086 2 8 3.79086 8 6C8 8.20914 9.79086 10 12 10Z" fill="url(#paint0_linear_person_plus)"/>
    <path d="M20 17.5C20 19.985 20 22 12 22C4 22 4 19.985 4 17.5C4 15.015 7.582 13 12 13C16.418 13 20 15.015 20 17.5Z" fill="url(#paint1_linear_person_plus)"/>
  </g>
  
  <!-- Plus icon in top area -->
  <path d="M46 14V22M42 18H50" stroke="url(#paint2_linear_person_plus)" stroke-width="2.5" stroke-linecap="round"/>
</g>

<defs>
  <linearGradient id="paint0_linear_person_plus" x1="12" y1="2" x2="0.764045" y2="19.9775" gradientUnits="userSpaceOnUse">
    <stop stop-color="#05B1F5"/>
    <stop offset="1" stop-color="#166DF6"/>
  </linearGradient>
  <linearGradient id="paint1_linear_person_plus" x1="12" y1="2" x2="0.764045" y2="19.9775" gradientUnits="userSpaceOnUse">
    <stop stop-color="#05B1F5"/>
    <stop offset="1" stop-color="#166DF6"/>
  </linearGradient>
  <linearGradient id="paint2_linear_person_plus" x1="46" y1="14" x2="46" y2="22" gradientUnits="userSpaceOnUse">
    <stop stop-color="#05B1F5"/>
    <stop offset="1" stop-color="#166DF6"/>
  </linearGradient>
  <clipPath id="clip0_person_plus">
    <rect width="48" height="48" fill="white" transform="translate(8, 8)"/>
  </clipPath>
</defs>
</svg>