<svg width="323" height="214" viewBox="0 0 323 214" fill="none" xmlns="http://www.w3.org/2000/svg">
<g clip-path="url(#clip0_4275_6133)">
<rect width="323" height="491" fill="url(#paint0_linear_4275_6133)"/>
<circle opacity="0.23" cx="161.5" cy="108.5" r="124.5" fill="#166AF6"/>
<circle opacity="0.23" cx="161.5" cy="108.501" r="76.3841" fill="#166AF6"/>
<g opacity="0.5">
<path d="M35.3408 122.199C35.3408 127.799 41.5892 133.704 46.7443 137.621C49.6368 139.815 51.0812 140.915 53.4416 140.915C55.8019 140.915 57.2464 139.815 60.1389 137.621C65.294 133.7 71.5423 127.796 71.5423 122.199C71.5423 112.099 61.5869 108.323 53.4416 116.128C45.2962 108.323 35.3408 112.099 35.3408 122.199Z" fill="#EDEDED"/>
<path opacity="0.5" d="M32.662 182.139H31.7208C28.307 182.139 26.6019 182.139 25.5412 181.079C24.4805 180.025 24.4805 178.316 24.4805 174.903V170.877C24.4805 169.002 24.4805 168.064 24.9619 167.224C25.4434 166.384 26.1711 165.964 27.6264 165.117C37.2053 159.546 50.8062 156.411 59.8819 161.823C60.4925 162.187 61.0355 162.631 61.511 163.155C61.9981 163.688 62.3735 164.312 62.6148 164.992C62.8561 165.672 62.9586 166.394 62.916 167.114C62.8735 167.835 62.6869 168.539 62.3672 169.186C62.0475 169.833 61.6012 170.409 61.0549 170.881C60.6196 171.294 60.0884 171.592 59.5091 171.749C59.9435 171.699 60.3598 171.642 60.758 171.579C64.056 171.054 66.8254 169.288 69.3595 167.373L75.9047 162.431C77.073 161.583 78.4796 161.127 79.9231 161.127C81.3666 161.127 82.7731 161.583 83.9415 162.431C86.0158 163.999 86.653 166.58 85.3388 168.687C83.8075 171.141 81.6499 174.28 79.5792 176.199C77.5084 178.117 74.4168 179.833 71.8972 181.05C69.1025 182.4 66.0181 183.175 62.8794 183.685C56.5152 184.713 49.8831 184.554 43.584 183.258C39.9904 182.518 36.331 182.141 32.662 182.139Z" fill="#EDEDED"/>
</g>
<g opacity="0.5">
<circle cx="161.573" cy="108.547" r="52" fill="#E4EEFF"/>
<path d="M151.293 96.6594C151.293 95.0217 150.627 93.451 149.442 92.293C148.257 91.135 146.65 90.4844 144.974 90.4844C143.298 90.4844 141.69 91.135 140.505 92.293C139.32 93.451 138.654 95.0217 138.654 96.6594C138.654 98.2971 139.32 99.8677 140.505 101.026C141.69 102.184 143.298 102.834 144.974 102.834C146.65 102.834 148.257 102.184 149.442 101.026C150.627 99.8677 151.293 98.2971 151.293 96.6594ZM133.599 112.097C133.599 113.805 135.011 115.184 136.758 115.184H145.211C146.208 111.383 149.022 108.286 152.695 106.829C151.737 106.25 150.602 105.922 149.397 105.922H139.918C136.433 105.922 133.599 108.691 133.599 112.097ZM179.178 115.184H187.314C189.062 115.184 190.474 113.805 190.474 112.097C190.474 108.691 187.64 105.922 184.154 105.922H174.675C173.52 105.922 172.434 106.221 171.505 106.752C175.267 108.18 178.161 111.315 179.178 115.184ZM169.067 109.241C168.385 109.087 167.664 109.009 166.934 109.009H157.455C156.615 109.009 155.806 109.116 155.035 109.308C151.994 110.09 149.545 112.309 148.509 115.184C148.163 116.149 147.965 117.191 147.965 118.272C147.965 119.98 149.377 121.359 151.125 121.359H173.243C174.991 121.359 176.403 119.98 176.403 118.272C176.403 117.191 176.215 116.149 175.86 115.184C174.794 112.222 172.226 109.955 169.057 109.241H169.067ZM186.05 96.6594C186.05 95.0217 185.384 93.451 184.199 92.293C183.014 91.135 181.407 90.4844 179.731 90.4844C178.055 90.4844 176.447 91.135 175.262 92.293C174.077 93.451 173.411 95.0217 173.411 96.6594C173.411 98.2971 174.077 99.8677 175.262 101.026C176.447 102.184 178.055 102.834 179.731 102.834C181.407 102.834 183.014 102.184 184.199 101.026C185.384 99.8677 186.05 98.2971 186.05 96.6594ZM162.194 105.922C164.289 105.922 166.298 105.109 167.78 103.661C169.261 102.214 170.093 100.25 170.093 98.2031C170.093 96.156 169.261 94.1927 167.78 92.7451C166.298 91.2976 164.289 90.4844 162.194 90.4844C160.099 90.4844 158.09 91.2976 156.608 92.7451C155.127 94.1927 154.295 96.156 154.295 98.2031C154.295 100.25 155.127 102.214 156.608 103.661C158.09 105.109 160.099 105.922 162.194 105.922Z" fill="url(#paint1_linear_4275_6133)"/>
</g>
<g opacity="0.5">
<path opacity="0.6" d="M294.293 61.6834C298.933 59.155 301.722 55.9074 301.722 52.3701C301.722 48.6214 298.588 45.198 293.437 42.6078C287.479 39.614 278.82 37.7266 269.181 37.7266C259.542 37.7266 250.883 39.614 244.925 42.6078C239.773 45.198 236.64 48.6214 236.64 52.3701C236.64 56.1189 239.773 59.5422 244.925 62.1325C250.883 65.1263 259.542 67.0137 269.181 67.0137C279.291 67.0137 288.322 64.9408 294.293 61.6834Z" fill="#EDEDED"/>
<path fill-rule="evenodd" clip-rule="evenodd" d="M260.232 8.44104C260.232 6.06766 261.175 3.79148 262.853 2.11325C264.532 0.43501 266.808 -0.507812 269.181 -0.507812C271.555 -0.507812 273.831 0.43501 275.509 2.11325C277.187 3.79148 278.13 6.06766 278.13 8.44104C278.13 10.8144 277.187 13.0906 275.509 14.7688C273.831 16.4471 271.555 17.3899 269.181 17.3899C266.808 17.3899 264.532 16.4471 262.853 14.7688C261.175 13.0906 260.232 10.8144 260.232 8.44104Z" fill="#EDEDED"/>
<path d="M256.89 33.0889L249.812 30.7296C248.6 30.3296 247.587 29.4795 246.982 28.3545C246.378 27.2296 246.228 25.9157 246.564 24.6837C246.9 23.4517 247.696 22.3956 248.788 21.7332C249.88 21.0707 251.184 20.8525 252.432 21.1235L258.608 22.4479L259.292 22.5911C266.046 23.9896 273.02 23.9408 279.753 22.4479L285.927 21.1235C287.175 20.8497 288.481 21.0662 289.575 21.7281C290.669 22.39 291.467 23.4468 291.803 24.68C292.14 25.9133 291.99 27.2288 291.385 28.3547C290.779 29.4806 289.764 30.3308 288.549 30.7296L281.472 33.0889C280.616 33.3752 280.19 33.5184 279.867 33.7169C279.331 34.0476 278.902 34.5267 278.633 35.0963C278.364 35.6658 278.266 36.3013 278.351 36.9255C278.403 37.2997 278.566 37.7195 278.888 38.5623L282.946 49.1122C283.382 50.2405 283.376 51.4922 282.928 52.6161C282.48 53.7399 281.624 54.6529 280.531 55.1717C279.438 55.6906 278.189 55.777 277.035 55.4136C275.882 55.0502 274.908 54.2639 274.309 53.2124L269.181 44.2375L264.052 53.2091C263.454 54.2606 262.48 55.0469 261.326 55.4103C260.172 55.7738 258.923 55.6873 257.831 55.1685C256.738 54.6496 255.881 53.7367 255.434 52.6128C254.986 51.4889 254.979 50.2373 255.416 49.1089L259.474 38.5623C259.799 37.7195 259.959 37.2997 260.011 36.9255C260.096 36.3013 259.998 35.6658 259.728 35.0963C259.459 34.5267 259.03 34.0476 258.494 33.7169C258.172 33.5184 257.746 33.3752 256.89 33.0889Z" fill="#EDEDED"/>
</g>
<g opacity="0.5">
<path d="M257.31 129.703C258.4 129.703 259.282 130.552 259.282 131.6V135.424C261.032 135.393 262.994 135.393 265.203 135.393H275.72C277.926 135.393 279.888 135.393 281.638 135.427V131.602C281.638 130.554 282.521 129.703 283.611 129.703C284.7 129.703 285.583 130.552 285.583 131.6V135.597C289.368 135.888 291.854 136.603 293.678 138.361C295.506 140.116 296.25 142.505 296.551 146.146L296.761 148.04H244.369V146.144C244.673 142.502 245.417 140.113 247.243 138.358C249.069 136.603 251.552 135.885 255.337 135.595V131.6C255.337 130.552 256.22 129.703 257.31 129.703Z" fill="#EDEDED"/>
<path opacity="0.5" d="M296.761 161.137V155.898C296.761 153.7 296.75 149.781 296.716 148.039H244.395C244.361 149.781 244.369 153.7 244.369 155.898V161.137C244.369 171.015 244.369 175.956 247.439 179.024C250.509 182.091 255.445 182.094 265.326 182.094H275.804C285.68 182.094 290.62 182.094 293.691 179.024C296.761 175.953 296.761 171.018 296.761 161.137Z" fill="#EDEDED"/>
<path d="M286.283 168.996C286.283 169.691 286.007 170.357 285.515 170.849C285.024 171.34 284.358 171.616 283.663 171.616C282.968 171.616 282.302 171.34 281.811 170.849C281.32 170.357 281.044 169.691 281.044 168.996C281.044 168.302 281.32 167.635 281.811 167.144C282.302 166.653 282.968 166.377 283.663 166.377C284.358 166.377 285.024 166.653 285.515 167.144C286.007 167.635 286.283 168.302 286.283 168.996ZM286.283 158.518C286.283 159.213 286.007 159.879 285.515 160.37C285.024 160.862 284.358 161.138 283.663 161.138C282.968 161.138 282.302 160.862 281.811 160.37C281.32 159.879 281.044 159.213 281.044 158.518C281.044 157.823 281.32 157.157 281.811 156.666C282.302 156.174 282.968 155.898 283.663 155.898C284.358 155.898 285.024 156.174 285.515 156.666C286.007 157.157 286.283 157.823 286.283 158.518ZM273.185 168.996C273.185 169.691 272.909 170.357 272.418 170.849C271.926 171.34 271.26 171.616 270.565 171.616C269.87 171.616 269.204 171.34 268.713 170.849C268.222 170.357 267.946 169.691 267.946 168.996C267.946 168.302 268.222 167.635 268.713 167.144C269.204 166.653 269.87 166.377 270.565 166.377C271.26 166.377 271.926 166.653 272.418 167.144C272.909 167.635 273.185 168.302 273.185 168.996ZM273.185 158.518C273.185 159.213 272.909 159.879 272.418 160.37C271.926 160.862 271.26 161.138 270.565 161.138C269.87 161.138 269.204 160.862 268.713 160.37C268.222 159.879 267.946 159.213 267.946 158.518C267.946 157.823 268.222 157.157 268.713 156.666C269.204 156.174 269.87 155.898 270.565 155.898C271.26 155.898 271.926 156.174 272.418 156.666C272.909 157.157 273.185 157.823 273.185 158.518ZM260.087 168.996C260.087 169.691 259.811 170.357 259.32 170.849C258.828 171.34 258.162 171.616 257.467 171.616C256.772 171.616 256.106 171.34 255.615 170.849C255.124 170.357 254.848 169.691 254.848 168.996C254.848 168.302 255.124 167.635 255.615 167.144C256.106 166.653 256.772 166.377 257.467 166.377C258.162 166.377 258.828 166.653 259.32 167.144C259.811 167.635 260.087 168.302 260.087 168.996ZM260.087 158.518C260.087 159.213 259.811 159.879 259.32 160.37C258.828 160.862 258.162 161.138 257.467 161.138C256.772 161.138 256.106 160.862 255.615 160.37C255.124 159.879 254.848 159.213 254.848 158.518C254.848 157.823 255.124 157.157 255.615 156.666C256.106 156.174 256.772 155.898 257.467 155.898C258.162 155.898 258.828 156.174 259.32 156.666C259.811 157.157 260.087 157.823 260.087 158.518Z" fill="#EDEDED"/>
</g>
<g opacity="0.5">
<path d="M177.909 227.376H143.725V234.364C143.725 235.059 143.449 235.726 142.957 236.217C142.466 236.709 141.799 236.985 141.104 236.985C140.409 236.985 139.742 236.709 139.251 236.217C138.759 235.726 138.483 235.059 138.483 234.364V226.244C135.587 224.979 133.277 222.732 132.166 219.895L132.029 219.538L127.477 207.333C126.026 203.44 129.269 199.422 133.86 199.422C136.691 199.422 139.221 201.005 140.185 203.384L144.022 212.84C144.371 213.699 144.546 214.133 144.797 214.482C145.426 215.327 146.349 215.904 147.383 216.1C147.837 216.194 148.351 216.194 149.375 216.194H173.765C175.753 216.194 176.745 216.194 177.577 215.852C178.033 215.661 178.44 215.406 178.796 215.087C179.439 214.506 179.778 213.671 180.456 212.001L183.954 203.384C184.918 201.008 187.448 199.422 190.278 199.422C194.87 199.422 198.112 203.44 196.662 207.333L192.749 217.816C192.067 219.646 191.728 220.558 191.278 221.338C189.973 223.53 188.004 225.248 185.655 226.244V234.364C185.655 235.059 185.379 235.726 184.888 236.217C184.396 236.709 183.73 236.985 183.035 236.985C182.34 236.985 181.673 236.709 181.182 236.217C180.69 235.726 180.414 235.059 180.414 234.364V227.358C179.761 227.376 178.964 227.376 177.909 227.376Z" fill="#EDEDED"/>
<path opacity="0.5" d="M166.388 176.703H157.75C153.906 176.703 150.845 176.703 148.455 177.011C145.988 177.325 143.965 177.989 142.354 179.526C140.733 181.067 140.017 183.031 139.681 185.414C139.356 187.713 139.356 190.638 139.356 194.29V201.959C139.699 202.393 139.975 202.866 140.185 203.378L144.021 212.833C144.371 213.693 144.545 214.126 144.797 214.476C145.425 215.321 146.348 215.898 147.383 216.094C147.837 216.188 148.351 216.188 149.374 216.188H173.764C175.752 216.188 176.745 216.188 177.576 215.846C178.033 215.654 178.439 215.399 178.796 215.08C179.439 214.5 179.778 213.665 180.456 211.995L183.953 203.378C184.163 202.863 184.439 202.39 184.781 201.959V194.29C184.781 190.638 184.781 187.713 184.456 185.414C184.121 183.031 183.405 181.067 181.783 179.523C180.176 177.992 178.149 177.325 175.686 177.007C173.292 176.703 170.235 176.703 166.388 176.703Z" fill="#EDEDED"/>
</g>
<g opacity="0.5">
<path d="M71.476 1.47656H52.7656C46.6606 1.47656 43.6064 1.47656 41.2036 2.95213C40.7901 3.20768 40.3958 3.49314 40.0239 3.80623C37.8637 5.61745 36.8933 8.51208 34.9624 14.308L34.8428 14.6636C33.7826 17.8374 33.2542 19.4259 33.8125 20.6257C33.9897 21.0041 34.2366 21.3457 34.5403 21.6326C35.5008 22.5432 37.1757 22.5432 40.5224 22.5432H83.7258C87.0724 22.5432 88.7441 22.5432 89.7079 21.6326C90.007 21.3468 90.2562 21.0012 90.4323 20.6257C90.9907 19.4259 90.4622 17.8374 89.4021 14.6636L89.2825 14.308C87.3516 8.51208 86.3845 5.61745 84.2243 3.80623C83.8514 3.49301 83.4559 3.20755 83.0412 2.95213C80.6384 1.47656 77.5843 1.47656 71.476 1.47656Z" fill="#EDEDED"/>
<path opacity="0.5" d="M58.6574 67.9438H65.5899C71.0701 67.9438 73.8085 67.9438 75.6795 66.3253C77.5506 64.7068 77.9494 61.9983 78.7437 56.5746L83.722 22.5469H40.5186L45.5036 56.5779C46.2945 62.0016 46.69 64.7101 48.561 66.3286C50.4321 67.9471 53.1772 67.9438 58.6574 67.9438Z" fill="#EDEDED"/>
<path d="M44.7397 51.3277H79.5119L81.9446 34.7109H42.3037L44.7397 51.3277Z" fill="#EDEDED"/>
</g>
</g>
<defs>
<linearGradient id="paint0_linear_4275_6133" x1="1.4819e-05" y1="372.5" x2="323" y2="185.5" gradientUnits="userSpaceOnUse">
<stop stop-color="#04B5F5"/>
<stop offset="1" stop-color="#166AF6"/>
</linearGradient>
<linearGradient id="paint1_linear_4275_6133" x1="162.036" y1="90.4844" x2="152.279" y2="126.43" gradientUnits="userSpaceOnUse">
<stop stop-color="#05B1F5"/>
<stop offset="1" stop-color="#166DF6"/>
</linearGradient>
<clipPath id="clip0_4275_6133">
<rect width="323" height="214" fill="white"/>
</clipPath>
</defs>
</svg>
