<svg width="58" height="58" viewBox="0 0 58 58" fill="none" xmlns="http://www.w3.org/2000/svg">
<path opacity="0.6" d="M47.6496 49.208C51.0957 47.3303 53.1668 44.9184 53.1668 42.2915C53.1668 39.5075 50.8396 36.9652 47.014 35.0415C42.5891 32.8182 36.1583 31.4165 29.0002 31.4165C21.842 31.4165 15.4112 32.8182 10.9863 35.0415C7.16075 36.9652 4.8335 39.5075 4.8335 42.2915C4.8335 45.0755 7.16075 47.6178 10.9863 49.5415C15.4112 51.7648 21.842 53.1665 29.0002 53.1665C36.5087 53.1665 43.215 51.6271 47.6496 49.208Z" fill="#166AF6"/>
<path fill-rule="evenodd" clip-rule="evenodd" d="M22.354 9.66683C22.354 7.90424 23.0542 6.21385 24.3005 4.96752C25.5469 3.72118 27.2373 3.021 28.9998 3.021C30.7624 3.021 32.4528 3.72118 33.6992 4.96752C34.9455 6.21385 35.6457 7.90424 35.6457 9.66683C35.6457 11.4294 34.9455 13.1198 33.6992 14.3661C32.4528 15.6125 30.7624 16.3127 28.9998 16.3127C27.2373 16.3127 25.5469 15.6125 24.3005 14.3661C23.0542 13.1198 22.354 11.4294 22.354 9.66683Z" fill="#166AF6"/>
<path d="M19.8725 27.97L14.6162 26.2179C13.7156 25.9208 12.9634 25.2895 12.5146 24.4541C12.0658 23.6186 11.9547 22.6428 12.2042 21.7279C12.4537 20.813 13.0447 20.0287 13.8555 19.5367C14.6663 19.0448 15.6349 18.8827 16.5616 19.0839L21.1485 20.0675L21.656 20.1738C26.6719 21.2124 31.8511 21.1762 36.852 20.0675L41.4364 19.0839C42.3638 18.8806 43.3338 19.0414 44.1461 19.533C44.9583 20.0245 45.5507 20.8093 45.8007 21.7252C46.0508 22.6411 45.9395 23.6181 45.4897 24.4542C45.04 25.2903 44.2863 25.9217 43.3842 26.2179L38.128 27.97C37.4924 28.1827 37.1758 28.289 36.9366 28.4364C36.5384 28.682 36.22 29.0378 36.0201 29.4608C35.8202 29.8838 35.7473 30.3557 35.8104 30.8193C35.8491 31.0972 35.9699 31.4089 36.2091 32.0348L39.2227 39.8697C39.5469 40.7076 39.5422 41.6372 39.2096 42.4718C38.877 43.3064 38.2411 43.9844 37.4294 44.3698C36.6178 44.7551 35.6905 44.8193 34.8335 44.5494C33.9765 44.2795 33.2533 43.6956 32.8089 42.9147L29.0002 36.2495L25.1916 42.9123C24.7472 43.6931 24.024 44.2771 23.167 44.547C22.31 44.8169 21.3827 44.7527 20.571 44.3674C19.7594 43.982 19.1235 43.304 18.7909 42.4694C18.4583 41.6348 18.4536 40.7052 18.7777 39.8673L21.7913 32.0348C22.033 31.4089 22.1514 31.0972 22.1901 30.8193C22.2531 30.3557 22.1803 29.8838 21.9804 29.4608C21.7805 29.0378 21.4621 28.682 21.0639 28.4364C20.8246 28.289 20.5081 28.1827 19.8725 27.97Z" fill="#166AF6"/>
</svg>
