<svg width="62" height="61" viewBox="0 0 62 61" fill="none" xmlns="http://www.w3.org/2000/svg">
<circle cx="31.1064" cy="30.5" r="30.5" fill="url(#paint0_linear_4338_2722)"/>
<path d="M25.0767 23.5281C25.0767 22.5675 24.6862 21.6463 23.9911 20.9671C23.296 20.2878 22.3532 19.9062 21.3701 19.9062C20.3871 19.9062 19.4443 20.2878 18.7492 20.9671C18.054 21.6463 17.6635 22.5675 17.6635 23.5281C17.6635 24.4887 18.054 25.4099 18.7492 26.0892C19.4443 26.7684 20.3871 27.15 21.3701 27.15C22.3532 27.15 23.296 26.7684 23.9911 26.0892C24.6862 25.4099 25.0767 24.4887 25.0767 23.5281ZM14.6982 32.5828C14.6982 33.5845 15.5264 34.3938 16.5515 34.3938H21.5091C22.0941 32.164 23.7447 30.3474 25.8991 29.4929C25.3373 29.1533 24.6713 28.9609 23.9647 28.9609H18.4048C16.3604 28.9609 14.6982 30.5851 14.6982 32.5828ZM41.4321 34.3938H46.2043C47.2294 34.3938 48.0576 33.5845 48.0576 32.5828C48.0576 30.5851 46.3954 28.9609 44.351 28.9609H38.7911C38.1135 28.9609 37.4764 29.1364 36.932 29.4476C39.1386 30.2852 40.8355 32.1244 41.4321 34.3938ZM35.5015 30.9077C35.1019 30.8171 34.6791 30.7719 34.2505 30.7719H28.6906C28.1984 30.7719 27.7235 30.8341 27.2717 30.9473C25.4879 31.4057 24.0516 32.7073 23.4435 34.3938C23.2408 34.9597 23.125 35.5709 23.125 36.2047C23.125 37.2064 23.9532 38.0156 24.9783 38.0156H37.9513C38.9765 38.0156 39.8046 37.2064 39.8046 36.2047C39.8046 35.5709 39.6946 34.9597 39.4861 34.3938C38.8606 32.6564 37.3548 31.3265 35.4957 30.9077H35.5015ZM45.463 23.5281C45.463 22.5675 45.0725 21.6463 44.3774 20.9671C43.6822 20.2878 42.7395 19.9062 41.7564 19.9062C40.7734 19.9062 39.8306 20.2878 39.1354 20.9671C38.4403 21.6463 38.0498 22.5675 38.0498 23.5281C38.0498 24.4887 38.4403 25.4099 39.1354 26.0892C39.8306 26.7684 40.7734 27.15 41.7564 27.15C42.7395 27.15 43.6822 26.7684 44.3774 26.0892C45.0725 25.4099 45.463 24.4887 45.463 23.5281ZM31.4706 28.9609C32.6994 28.9609 33.8779 28.484 34.7468 27.6349C35.6157 26.7859 36.1038 25.6343 36.1038 24.4336C36.1038 23.2329 35.6157 22.0813 34.7468 21.2323C33.8779 20.3832 32.6994 19.9062 31.4706 19.9062C30.2418 19.9062 29.0633 20.3832 28.1944 21.2323C27.3255 22.0813 26.8373 23.2329 26.8373 24.4336C26.8373 25.6343 27.3255 26.7859 28.1944 27.6349C29.0633 28.484 30.2418 28.9609 31.4706 28.9609Z" fill="white"/>
<defs>
<linearGradient id="paint0_linear_4338_2722" x1="31.1064" y1="-9.08971e-07" x2="0.606444" y2="61" gradientUnits="userSpaceOnUse">
<stop stop-color="#05B1F5"/>
<stop offset="1" stop-color="#166DF6"/>
</linearGradient>
</defs>
</svg>
