<svg width="14" height="14" viewBox="0 0 14 14" fill="none" xmlns="http://www.w3.org/2000/svg">
<path d="M9.69966 2.66507C10.799 2.66507 11.683 3.55474 11.683 4.64841C11.683 5.71941 10.833 6.59207 9.77333 6.63174C9.72799 6.62607 9.67699 6.62607 9.62599 6.63174M10.7933 11.7317C11.2013 11.6467 11.5867 11.4824 11.904 11.2387C12.788 10.5757 12.788 9.48207 11.904 8.81907C11.5923 8.58107 11.2127 8.42241 10.8103 8.33174M5.59133 6.55807C5.53466 6.55241 5.46666 6.55241 5.40433 6.55807C4.05566 6.51274 2.98466 5.40774 2.98466 4.04774C2.98466 2.65941 4.10666 1.53174 5.50066 1.53174C6.88899 1.53174 8.01666 2.65941 8.01666 4.04774C8.01099 5.40774 6.93999 6.51274 5.59133 6.55807ZM2.75799 8.64907C1.38666 9.56707 1.38666 11.0631 2.75799 11.9754C4.31633 13.0181 6.87199 13.0181 8.43033 11.9754C9.80166 11.0574 9.80166 9.56141 8.43033 8.64907C6.87766 7.61207 4.32199 7.61207 2.75799 8.64907Z" stroke="#292D32" stroke-linecap="round" stroke-linejoin="round"/>
</svg>
