<svg width="51" height="45" viewBox="0 0 51 45" fill="none" xmlns="http://www.w3.org/2000/svg">
<g clip-path="url(#clip0_2675_3443)">
<path d="M0.264793 31.4921C0.359249 31.8904 0.486767 32.284 0.647343 32.6634C1.49746 34.6693 3.141 36.3244 5.13404 37.1969C6.5509 37.8182 8.2275 38.0458 9.72937 38.4109C13.1204 39.2361 16.535 39.9806 19.9118 40.8532C21.6545 41.3037 23.4114 41.702 25.1636 42.1194C26.0421 42.328 26.9158 42.5367 27.7942 42.7406C28.6018 42.9303 29.6031 43.3523 30.4296 43.3523C32.2195 43.7696 34.5007 44.7276 36.3237 44.3387C39.0629 43.7554 40.4089 40.2936 38.5151 38.1312C37.6366 37.1258 36.3567 36.5662 35.0816 36.1679C32.7438 35.4376 30.4343 34.6978 28.1201 33.8964C24.9369 32.7962 21.7632 31.6533 18.5611 30.5768C16.3083 29.8181 13.8996 28.9408 12.5489 26.9727C11.7224 25.7682 11.4013 24.2792 11.3068 22.8233C11.2596 22.1499 11.2596 21.4765 11.2596 20.7984C11.2501 16.5588 11.2926 12.3383 11.2879 8.10823C11.2879 5.27714 10.145 1.96707 6.77287 2.00501C4.01473 2.0382 2.78207 4.33344 2.43258 6.74722C2.35229 7.31628 2.25311 7.88061 2.19172 8.45441C2.14449 8.90018 2.17754 9.35543 2.11615 9.79646C2.0028 10.6263 1.82805 11.4467 1.71471 12.2766C1.56358 13.4242 1.43606 14.5719 1.31326 15.7242C0.973221 18.9537 0.670956 22.1736 0.278961 25.4031C0.04282 27.3569 -0.216938 29.5098 0.260071 31.4921H0.264793ZM33.4286 37.306C33.5089 37.3108 33.5939 37.3392 33.6694 37.3677C34.6471 37.7091 35.6247 38.0505 36.6023 38.3967C36.7251 38.4679 36.8432 38.5342 36.966 38.6054C37.4241 39.1792 37.9247 39.6961 37.9106 40.5402C37.8822 42.1099 36.574 43.1769 35.0249 42.8354C33.9103 42.5888 32.791 42.3612 31.6717 42.1288C31.6481 42.0577 31.6292 41.9866 31.6056 41.9202C32.0637 40.526 32.5501 39.1412 32.9705 37.7376C33.0271 37.5526 33.1452 37.3582 33.3341 37.3202C33.3672 37.3155 33.3955 37.3108 33.4286 37.3155V37.306ZM29.4614 35.9735C30.2265 36.2295 30.9444 36.4714 31.6575 36.7132C31.6717 36.7512 31.6859 36.7939 31.7 36.8318C31.6764 36.865 31.6717 36.9029 31.6859 36.9456C31.1616 38.4726 30.6374 39.9996 30.1084 41.5218C29.9951 41.5408 29.8817 41.5598 29.7684 41.5787C29.145 41.446 28.5168 41.3132 27.8131 41.1662C28.1579 39.9996 28.4885 38.8852 28.8191 37.7755C28.8994 37.5384 28.9749 37.3013 29.0552 37.0642C29.0647 37.0262 29.0788 36.993 29.0883 36.9551C29.2064 36.6374 29.3292 36.3196 29.4567 35.9735H29.4614ZM4.16586 5.91733C4.27449 4.83137 4.86956 4.1153 5.8283 3.76911C7.70327 3.09098 9.56407 4.27653 9.60657 6.19712C9.62546 7.13608 9.60657 8.07978 9.60657 9.08987C7.67493 8.83854 5.79052 8.59194 3.77859 8.32638C3.91555 7.50123 4.08557 6.70928 4.16586 5.91259V5.91733ZM3.73136 9.97666C3.74553 9.90553 3.96278 9.82491 4.07613 9.83914C5.11987 9.96718 6.1589 10.1047 7.19793 10.2517C8.03387 10.3703 8.86981 10.4983 9.72464 10.6216C9.68214 11.3851 9.64436 12.0775 9.59713 12.841C7.5852 12.6418 5.52132 12.4331 3.33936 12.215C3.46688 11.4657 3.58495 10.7164 3.73136 9.97192V9.97666ZM1.52579 27.85C1.56358 27.4422 1.6108 27.0296 1.66275 26.6218C2.12559 22.8233 2.73012 19.0153 2.9332 15.1883C2.94737 14.8943 2.96626 14.5908 3.07961 14.3205C3.48105 13.3768 5.15294 13.9601 5.93693 14.0455C7.12236 14.1735 8.30307 14.3016 9.4885 14.4296C9.54517 14.4343 9.60657 14.4438 9.64908 14.4865C9.69631 14.5339 9.70103 14.6145 9.69631 14.6857C9.57351 17.863 9.28542 21.2157 9.84744 24.3645C10.3528 27.1814 12.2466 29.396 14.712 30.7381C16.7333 31.8382 18.9767 32.2224 21.0878 33.0333C23.317 33.8869 25.6264 34.4797 27.8178 35.4518C27.8698 35.4755 27.9265 35.504 27.9501 35.5561C27.9737 35.6083 27.9548 35.67 27.9359 35.7269C27.4022 37.3155 26.9914 39.018 26.3443 40.5544C26.3113 40.635 26.264 40.7204 26.1837 40.7394C26.1365 40.7536 26.0846 40.7394 26.0373 40.7299C21.9568 39.7198 17.8668 38.7524 13.7768 37.7802C9.27597 36.7085 2.64983 36.2295 1.58719 30.5673C1.42189 29.6758 1.44078 28.7606 1.52579 27.8548V27.85Z" fill="#FFFAEF"/>
</g>
<path opacity="0.5" d="M49 16.0938L32.0286 27.6101" stroke="#FFFAEF" stroke-width="3.67384" stroke-linecap="round"/>
<path opacity="0.5" d="M36.9727 12.9141L20.0012 24.4304" stroke="#FFFAEF" stroke-width="3.67384" stroke-linecap="round"/>
<path opacity="0.5" d="M36.3672 2L19.3958 13.5163" stroke="#FFFAEF" stroke-width="3.67384" stroke-linecap="round"/>
<defs>
<clipPath id="clip0_2675_3443">
<rect width="39.3979" height="42.4285" fill="white" transform="matrix(-1 0 0 -1 39.3984 44.4297)"/>
</clipPath>
</defs>
</svg>
