<svg width="38" height="38" viewBox="0 0 38 38" fill="none" xmlns="http://www.w3.org/2000/svg">
<path d="M19.1971 31.6641C19.0915 31.6641 18.9859 31.6377 18.8804 31.5849C18.7748 31.5321 18.6957 31.4793 18.6429 31.4266L5.65955 18.4432C5.34288 18.1266 5.11171 17.7703 4.96605 17.3745C4.82038 16.9786 4.74808 16.5828 4.74913 16.187C4.74913 15.7648 4.82144 15.3621 4.96605 14.9789C5.11066 14.5957 5.34183 14.2595 5.65955 13.9703L12.3887 7.24115C12.679 6.92448 13.0157 6.69384 13.3989 6.54923C13.782 6.40462 14.1837 6.33179 14.6038 6.33073C14.9996 6.33073 15.3955 6.40356 15.7913 6.54923C16.1871 6.6949 16.5434 6.92554 16.86 7.24115L17.2955 7.67656L14.3663 10.6453C13.9705 11.0148 13.6802 11.437 13.4955 11.912C13.3107 12.387 13.2184 12.8884 13.2184 13.4161C13.2184 14.5245 13.5942 15.455 14.3457 16.2076C15.0973 16.9602 16.0277 17.336 17.1371 17.3349C17.6649 17.3349 18.1726 17.2425 18.6603 17.0578C19.148 16.8731 19.5771 16.596 19.9475 16.2266L22.9179 13.2974L29.845 20.2245C29.9241 20.3036 29.9832 20.3897 30.0223 20.4826C30.0614 20.5755 30.0814 20.6741 30.0825 20.7786C30.0825 20.9898 30.0033 21.1813 29.845 21.3534C29.6866 21.5255 29.5019 21.611 29.2908 21.6099C29.1852 21.6099 29.0797 21.5835 28.9741 21.5307C28.8686 21.478 28.7894 21.4252 28.7366 21.3724L24.4616 17.0974C24.1714 16.8071 23.8082 16.6551 23.3723 16.6414C22.9364 16.6277 22.5606 16.7797 22.245 17.0974C21.9547 17.3877 21.8095 17.7571 21.8095 18.2057C21.8095 18.6543 21.9547 19.0238 22.245 19.3141L26.4804 23.5891C26.5596 23.6682 26.6187 23.7543 26.6577 23.8471C26.6968 23.94 26.7168 24.0387 26.7179 24.1432C26.7179 24.3543 26.6387 24.5391 26.4804 24.6974C26.3221 24.8557 26.1373 24.9349 25.9262 24.9349C25.8207 24.9349 25.7151 24.9085 25.6096 24.8557C25.504 24.803 25.4248 24.7502 25.3721 24.6974L21.0971 20.462C20.8068 20.1717 20.4437 20.0197 20.0077 20.006C19.5718 19.9923 19.196 20.1443 18.8804 20.462C18.5901 20.7523 18.445 21.1217 18.445 21.5703C18.445 22.0189 18.5901 22.3884 18.8804 22.6786L23.1158 26.9536C23.195 27.0064 23.2541 27.0856 23.2931 27.1911C23.3322 27.2967 23.3522 27.4023 23.3533 27.5078C23.3533 27.7189 23.2741 27.9036 23.1158 28.062C22.9575 28.2203 22.7727 28.2995 22.5616 28.2995C22.4561 28.2995 22.3569 28.2794 22.264 28.2393C22.1711 28.1992 22.0856 28.1401 22.0075 28.062L17.7325 23.8266C17.4422 23.5363 17.0791 23.3843 16.6431 23.3706C16.2072 23.3568 15.8314 23.5088 15.5158 23.8266C15.2255 24.1168 15.0804 24.4863 15.0804 24.9349C15.0804 25.3835 15.2255 25.753 15.5158 26.0432L19.7908 30.3182C19.87 30.3974 19.9291 30.4834 19.9681 30.5763C20.0072 30.6692 20.0272 30.7679 20.0283 30.8724C20.0283 31.0835 19.9423 31.2682 19.7702 31.4266C19.5982 31.5849 19.4071 31.6641 19.1971 31.6641ZM19.2366 34.8307C20.213 34.8307 21.077 34.5077 21.8286 33.8617C22.5801 33.2157 23.0224 32.404 23.1554 31.4266C24.0526 31.2946 24.8047 30.9252 25.4116 30.3182C26.0186 29.7113 26.388 28.9592 26.52 28.062C27.4172 27.93 28.1624 27.5543 28.7556 26.9346C29.3489 26.315 29.712 25.5693 29.845 24.6974C30.8477 24.5655 31.6658 24.13 32.2991 23.3911C32.9325 22.6523 33.2491 21.7814 33.2491 20.7786C33.2491 20.2509 33.1499 19.7431 32.9515 19.2555C32.753 18.7678 32.4696 18.3387 32.1012 17.9682L25.1741 11.0411C24.5672 10.4342 23.8214 10.1307 22.9369 10.1307C22.0523 10.1307 21.3071 10.4342 20.7012 11.0411L17.7325 14.0099C17.6797 14.0891 17.6005 14.1487 17.495 14.1888C17.3894 14.2289 17.2839 14.2485 17.1783 14.2474C16.9408 14.2474 16.7429 14.1751 16.5845 14.0305C16.4262 13.8859 16.347 13.6943 16.347 13.4557C16.347 13.3502 16.3671 13.2446 16.4072 13.1391C16.4473 13.0335 16.5064 12.9543 16.5845 12.9016L22.245 7.24115C22.5352 6.92448 22.8714 6.69384 23.2535 6.54923C23.6357 6.40462 24.0384 6.33179 24.4616 6.33073C24.8575 6.33073 25.2533 6.40356 25.6491 6.54923C26.045 6.6949 26.4012 6.92554 26.7179 7.24115L32.2991 12.862C32.6686 13.2314 32.9325 13.6668 33.0908 14.1682C33.2491 14.6696 33.2887 15.171 33.2096 15.6724C33.1304 16.121 33.2227 16.5168 33.4866 16.8599C33.7505 17.203 34.1068 17.4009 34.5554 17.4536C35.004 17.5064 35.3998 17.4072 35.7429 17.156C36.0859 16.9048 36.2839 16.5554 36.3366 16.1078C36.495 15.105 36.4221 14.1223 36.1181 13.1596C35.8141 12.197 35.2932 11.3457 34.5554 10.6057L28.9741 5.02448C28.3408 4.41754 27.6346 3.95573 26.8556 3.63906C26.0766 3.3224 25.2786 3.16406 24.4616 3.16406C23.6446 3.16406 22.8461 3.3224 22.066 3.63906C21.286 3.95573 20.5935 4.41754 19.9887 5.02448L19.5533 5.4599L19.1179 5.02448C18.4845 4.41754 17.7784 3.95573 16.9994 3.63906C16.2204 3.3224 15.4224 3.16406 14.6054 3.16406C13.7884 3.16406 12.9899 3.3224 12.2098 3.63906C11.4297 3.95573 10.7373 4.41754 10.1325 5.02448L3.44288 11.7141C2.83593 12.321 2.37413 13.0203 2.05746 13.812C1.7408 14.6036 1.58246 15.4085 1.58246 16.2266C1.58246 17.0446 1.7408 17.8431 2.05746 18.6221C2.37413 19.4011 2.83594 20.0936 3.44288 20.6995L16.4262 33.6432C16.7957 34.0127 17.2242 34.3029 17.7119 34.5141C18.1996 34.7252 18.7078 34.8307 19.2366 34.8307Z" fill="white"/>
</svg>
