<svg width="62" height="62" viewBox="0 0 62 62" fill="none" xmlns="http://www.w3.org/2000/svg">
<rect width="61.0909" height="61.0909" rx="30.5455" fill="url(#paint0_linear_4889_3050)"/>
<g clip-path="url(#clip0_4889_3050)">
<path d="M21.3735 38.6997L31.7243 43.1933C32.9218 43.7131 33.8846 41.9942 32.9585 40.9893L30.0577 37.838C28.597 36.2508 28.1197 33.825 28.848 31.6856L33.2522 18.771C33.7316 17.364 32.1037 16.2828 31.2531 17.4403L20.0047 32.7599C18.5441 34.7491 19.2438 37.7733 21.3756 38.6974L21.3735 38.6997Z" fill="white"/>
<path d="M41.2786 27.3433L34.0818 26.4599C33.2492 26.3578 32.9032 27.6209 33.6384 28.0795L35.9418 29.5182C37.1016 30.2429 37.7694 31.6804 37.6348 33.1641L36.8171 42.1227C36.7283 43.0986 37.9169 43.4733 38.2772 42.5847L43.0396 30.8255C43.658 29.2986 42.7596 27.5262 41.2776 27.3451L41.2786 27.3433Z" fill="#ADCCFF"/>
</g>
<defs>
<linearGradient id="paint0_linear_4889_3050" x1="30.5455" y1="-9.10326e-07" x2="-1.36549e-06" y2="61.0909" gradientUnits="userSpaceOnUse">
<stop stop-color="#05B1F5"/>
<stop offset="1" stop-color="#166DF6"/>
</linearGradient>
<clipPath id="clip0_4889_3050">
<rect width="32" height="32" fill="white" transform="translate(46.5459 46.5469) rotate(180)"/>
</clipPath>
</defs>
</svg>
