<svg width="34" height="34" viewBox="0 0 34 34" fill="none" xmlns="http://www.w3.org/2000/svg">
<g clip-path="url(#clip0_432_16498)">
<path d="M7.39069 25.5438L18.2343 30.2513C19.4888 30.7959 20.4975 28.9952 19.5273 27.9424L16.4883 24.641C14.9582 22.9783 14.4581 20.4369 15.221 18.1957L19.835 4.66611C20.3372 3.19213 18.6318 2.05943 17.7407 3.27201L5.95669 19.3212C4.42653 21.4051 5.15955 24.5733 7.39282 25.5414L7.39069 25.5438Z" fill="url(#paint0_linear_432_16498)"/>
<path d="M28.2436 13.6489L20.7041 12.7235C19.8319 12.6165 19.4694 13.9397 20.2397 14.4202L22.6527 15.9274C23.8678 16.6866 24.5673 18.1925 24.4263 19.7469L23.5697 29.1321C23.4767 30.1545 24.7218 30.547 25.0993 29.6161L30.0885 17.297C30.7363 15.6974 29.7952 13.8406 28.2426 13.6508L28.2436 13.6489Z" fill="#ADCCFF"/>
</g>
<defs>
<linearGradient id="paint0_linear_432_16498" x1="12.5371" y1="30.3517" x2="29.7415" y2="11.9235" gradientUnits="userSpaceOnUse">
<stop stop-color="#05B1F5"/>
<stop offset="1" stop-color="#166DF6"/>
</linearGradient>
<clipPath id="clip0_432_16498">
<rect width="33.5238" height="33.5238" fill="white" transform="translate(33.7617 33.7618) rotate(180)"/>
</clipPath>
</defs>
</svg>
