<svg width="32" height="32" viewBox="0 0 32 32" fill="none" xmlns="http://www.w3.org/2000/svg">
<g clip-path="url(#clip0_981_2253)">
<path d="M31.618 16.3683C31.618 15.2807 31.5298 14.1872 31.3417 13.1172H16.25V19.2785H24.8923C24.5337 21.2656 23.3814 23.0235 21.6941 24.1405V28.1383H26.85C29.8778 25.3516 31.618 21.2362 31.618 16.3683Z" fill="#4285F4"/>
<path d="M16.2501 32.0009C20.5654 32.0009 24.2046 30.5841 26.8561 28.1384L21.7001 24.1406C20.2656 25.1165 18.4137 25.6691 16.256 25.6691C12.0819 25.6691 8.54263 22.853 7.27274 19.0669H1.95215V23.1882C4.6683 28.5911 10.2005 32.0009 16.2501 32.0009Z" fill="#34A853"/>
<path d="M7.26672 19.0671C6.5965 17.08 6.5965 14.9282 7.26672 12.9411V8.81982H1.952C-0.317334 13.3409 -0.317334 18.6673 1.952 23.1884L7.26672 19.0671Z" fill="#FBBC04"/>
<path d="M16.2501 6.33288C18.5312 6.29761 20.7359 7.15596 22.3879 8.73156L26.956 4.16349C24.0635 1.44734 20.2244 -0.0459547 16.2501 0.00107822C10.2005 0.00107822 4.6683 3.41096 1.95215 8.81974L7.26686 12.941C8.53087 9.14897 12.076 6.33288 16.2501 6.33288Z" fill="#EA4335"/>
</g>
<defs>
<clipPath id="clip0_981_2253">
<rect width="32" height="32" fill="white"/>
</clipPath>
</defs>
</svg>
