<svg width="22" height="21" viewBox="0 0 22 21" fill="none" xmlns="http://www.w3.org/2000/svg">
<path d="M21.2025 19.6387V8.32147C21.2025 8.11477 21.1551 7.91091 21.0642 7.72603C20.9732 7.54116 20.841 7.38034 20.6783 7.25632L11.5039 0.266287C11.277 0.093437 11.0011 0 10.7175 0C10.4339 0 10.158 0.093437 9.93109 0.266287L0.756675 7.25632C0.593899 7.38034 0.461783 7.54116 0.370789 7.72603C0.279795 7.91091 0.232422 8.11477 0.232422 8.32147V19.6387C0.232422 19.9918 0.370506 20.3304 0.616297 20.5801C0.862088 20.8298 1.19545 20.9701 1.54305 20.9701H6.78558C7.13318 20.9701 7.46654 20.8298 7.71233 20.5801C7.95813 20.3304 8.09621 19.9918 8.09621 19.6387V15.6444C8.09621 15.2912 8.23429 14.9526 8.48008 14.7029C8.72588 14.4532 9.05924 14.3129 9.40684 14.3129H12.0281C12.3757 14.3129 12.7091 14.4532 12.9549 14.7029C13.2007 14.9526 13.3387 15.2912 13.3387 15.6444V19.6387C13.3387 19.9918 13.4768 20.3304 13.7226 20.5801C13.9684 20.8298 14.3018 20.9701 14.6494 20.9701H19.8919C20.2395 20.9701 20.5729 20.8298 20.8186 20.5801C21.0644 20.3304 21.2025 19.9918 21.2025 19.6387Z" fill="white"/>
</svg>
