<svg width="40" height="40" viewBox="0 0 40 40" fill="none" xmlns="http://www.w3.org/2000/svg">
<path fill-rule="evenodd" clip-rule="evenodd" d="M26.295 10.8589C25.6446 10.1418 25.2164 9.25121 25.0624 8.2954C24.9084 7.33959 25.0352 6.35962 25.4274 5.47448C25.8196 4.58934 26.4603 3.83709 27.2718 3.30908C28.0833 2.78107 29.0306 2.5 29.9987 2.5C30.9669 2.5 31.9142 2.78107 32.7257 3.30908C33.5372 3.83709 34.1779 4.58934 34.5701 5.47448C34.9623 6.35962 35.0891 7.33959 34.9351 8.2954C34.7811 9.25121 34.3529 10.1418 33.7025 10.8589C33.9025 10.9639 34.0942 11.0772 34.2775 11.1989C35.42 11.9614 36.1525 12.9589 36.61 13.8814C37.1553 14.9926 37.4586 16.2068 37.5 17.4439L37.5 22.4989C37.5 23.1619 37.2366 23.7978 36.7678 24.2667C36.2989 24.7355 35.663 24.9989 35 24.9989L28.75 24.9989C28.3124 24.1109 27.735 23.2989 27.04 22.5939L27.0725 22.4989L35 22.4989L35 17.4989C35 17.4989 35 12.4989 30 12.4989C27.4825 12.4989 26.2325 13.7664 25.6125 15.0239C25.05 14.3889 24.38 13.8489 23.63 13.4339C24.2607 12.3438 25.1838 11.4518 26.295 10.8589ZM30 9.9989C29.337 9.9989 28.7011 9.73551 28.2322 9.26667C27.7634 8.79783 27.5 8.16194 27.5 7.4989C27.5 6.83586 27.7634 6.19998 28.2322 5.73114C28.7011 5.2623 29.337 4.9989 30 4.9989C30.663 4.9989 31.2989 5.2623 31.7678 5.73114C32.2366 6.19998 32.5 6.83586 32.5 7.4989C32.5 8.16194 32.2366 8.79783 31.7678 9.26667C31.2989 9.73551 30.663 9.9989 30 9.9989ZM5 24.9989L11.25 24.9989C11.6876 24.1109 12.265 23.2989 12.96 22.5939L12.9275 22.4989L5 22.4989L5 17.4989C5 17.4989 5 12.4989 10 12.4989C12.5175 12.4989 13.7675 13.7664 14.3875 15.0239C14.9531 14.385 15.6235 13.8473 16.37 13.4339C15.7393 12.3438 14.8162 11.4518 13.705 10.8589C14.3554 10.1418 14.7836 9.25121 14.9376 8.2954C15.0916 7.33959 14.9648 6.35962 14.5726 5.47448C14.1804 4.58934 13.5397 3.83709 12.7282 3.30908C11.9167 2.78107 10.9694 2.5 10.0012 2.5C9.03311 2.5 8.08579 2.78107 7.27431 3.30908C6.46283 3.83709 5.82209 4.58934 5.42989 5.47448C5.0377 6.35962 4.91091 7.33959 5.06492 8.2954C5.21893 9.25121 5.64712 10.1418 6.2975 10.8589C6.0975 10.9639 5.90583 11.0772 5.7225 11.1989C4.58 11.9614 3.8475 12.9589 3.39 13.8814C2.85273 14.9653 2.5495 16.1501 2.5 17.3589L2.5 22.4989C2.5 23.1619 2.76339 23.7978 3.23223 24.2667C3.70107 24.7355 4.33696 24.9989 5 24.9989ZM10 9.9989C9.33696 9.9989 8.70107 9.73551 8.23223 9.26667C7.76339 8.79783 7.5 8.16195 7.5 7.49891C7.5 6.83586 7.76339 6.19998 8.23223 5.73114C8.70107 5.2623 9.33696 4.99891 10 4.99891C10.663 4.99891 11.2989 5.2623 11.7678 5.73114C12.2366 6.19998 12.5 6.83586 12.5 7.4989C12.5 8.16195 12.2366 8.79783 11.7678 9.26667C11.2989 9.73551 10.663 9.9989 10 9.9989Z" fill="url(#paint0_linear_2675_3471)"/>
<path fill-rule="evenodd" clip-rule="evenodd" d="M15 20C15 21.2925 15.49 22.4725 16.295 23.36C15.0353 24.0421 14.0192 25.0993 13.3875 26.385C12.8401 27.4935 12.5374 28.7068 12.5 29.9425L12.5 35C12.5 35.6631 12.7634 36.299 13.2322 36.7678C13.7011 37.2366 14.337 37.5 15 37.5L25 37.5C25.663 37.5 26.2989 37.2366 26.7678 36.7678C27.2366 36.299 27.5 35.6631 27.5 35L27.5 29.945C27.4988 29.8324 27.4938 29.7198 27.485 29.6075C27.4032 28.4863 27.1061 27.3913 26.61 26.3825C25.979 25.0972 24.9637 24.04 23.705 23.3575C24.2502 22.7559 24.6406 22.0306 24.8427 21.2443C25.0447 20.458 25.0523 19.6343 24.8646 18.8444C24.677 18.0546 24.2999 17.3222 23.7658 16.7108C23.2317 16.0993 22.5568 15.6271 21.7993 15.335C21.0418 15.0428 20.2246 14.9395 19.4183 15.034C18.6119 15.1284 17.8407 15.4178 17.1712 15.8771C16.5018 16.3364 15.9543 16.9518 15.576 17.6702C15.1977 18.3885 15 19.1882 15 20ZM25 30L25 35L15 35L15 30C15 30 15 25 20 25C25 25 25 30 25 30ZM17.5 20C17.5 20.6631 17.7634 21.299 18.2322 21.7678C18.7011 22.2366 19.337 22.5 20 22.5C20.663 22.5 21.2989 22.2366 21.7678 21.7678C22.2366 21.299 22.5 20.6631 22.5 20C22.5 19.337 22.2366 18.7011 21.7678 18.2323C21.2989 17.7634 20.663 17.5 20 17.5C19.337 17.5 18.7011 17.7634 18.2322 18.2323C17.7634 18.7011 17.5 19.337 17.5 20Z" fill="url(#paint1_linear_2675_3471)"/>
<defs>
<linearGradient id="paint0_linear_2675_3471" x1="37.5" y1="24.9989" x2="34.1584" y2="-1.49327" gradientUnits="userSpaceOnUse">
<stop stop-color="#00C9F7"/>
<stop offset="1" stop-color="#166AF6"/>
</linearGradient>
<linearGradient id="paint1_linear_2675_3471" x1="27.5" y1="37.5" x2="20.2096" y2="12.7308" gradientUnits="userSpaceOnUse">
<stop stop-color="#00C9F7"/>
<stop offset="1" stop-color="#166AF6"/>
</linearGradient>
</defs>
</svg>
