<svg width="51" height="45" viewBox="0 0 51 45" fill="none" xmlns="http://www.w3.org/2000/svg">
<g clip-path="url(#clip0_2675_3464)">
<path d="M50.7352 12.9376C50.6408 12.5393 50.5132 12.1457 50.3527 11.7663C49.5025 9.76034 47.859 8.10531 45.866 7.23275C44.4491 6.61152 42.7725 6.38389 41.2706 6.01874C37.8796 5.19359 34.465 4.44907 31.0882 3.5765C29.3455 3.12599 27.5886 2.72765 25.8364 2.31033C24.9579 2.10168 24.0842 1.89302 23.2058 1.6891C22.3982 1.49941 21.3969 1.07736 20.5704 1.07736C18.7805 0.660044 16.4993 -0.297883 14.6763 0.0909786C11.9371 0.67427 10.5911 4.13608 12.4849 6.29853C13.3634 7.30388 14.6433 7.86346 15.9184 8.2618C18.2562 8.9921 20.5657 9.73189 22.8799 10.5333C26.0631 11.6335 29.2368 12.7764 32.4389 13.8529C34.6917 14.6116 37.1004 15.4889 38.4511 17.4569C39.2776 18.6615 39.5987 20.1505 39.6932 21.6064C39.7404 22.2798 39.7404 22.9532 39.7404 23.6313C39.7499 27.8708 39.7074 32.0914 39.7121 36.3215C39.7121 39.1525 40.855 42.4626 44.2271 42.4247C46.9853 42.3915 48.2179 40.0963 48.5674 37.6825C48.6477 37.1134 48.7469 36.5491 48.8083 35.9753C48.8555 35.5295 48.8225 35.0743 48.8839 34.6332C48.9972 33.8033 49.1719 32.9829 49.2853 32.1531C49.4364 31.0054 49.5639 29.8578 49.6867 28.7055C50.0268 25.476 50.329 22.2561 50.721 19.0266C50.9572 17.0728 51.2169 14.9199 50.7399 12.9376H50.7352ZM17.5714 7.12367C17.4911 7.11893 17.4061 7.09048 17.3306 7.06203C16.3529 6.72059 15.3753 6.37915 14.3977 6.03297C14.2749 5.96183 14.1568 5.89544 14.034 5.82431C13.5759 5.2505 13.0753 4.7336 13.0894 3.88949C13.1178 2.31982 14.426 1.25282 15.9751 1.59426C17.0897 1.84085 18.209 2.06848 19.3283 2.30085C19.3519 2.37198 19.3708 2.44311 19.3944 2.50951C18.9363 3.90371 18.4499 5.28844 18.0295 6.69213C17.9729 6.87708 17.8548 7.07151 17.6659 7.10945C17.6328 7.11419 17.6045 7.11893 17.5714 7.11419V7.12367ZM21.5386 8.45623C20.7735 8.20016 20.0556 7.9583 19.3425 7.71645C19.3283 7.67851 19.3141 7.63583 19.3 7.5979C19.3236 7.5647 19.3283 7.52676 19.3141 7.48408C19.8384 5.95709 20.3626 4.4301 20.8916 2.90785C21.0049 2.88888 21.1183 2.86991 21.2316 2.85094C21.855 2.98373 22.4832 3.11651 23.1869 3.26352C22.8421 4.4301 22.5115 5.54452 22.1809 6.6542C22.1006 6.89131 22.0251 7.12842 21.9448 7.36553C21.9353 7.40346 21.9212 7.43666 21.9117 7.4746C21.7936 7.79233 21.6708 8.11005 21.5433 8.45623H21.5386ZM46.8341 38.5124C46.7255 39.5983 46.1304 40.3144 45.1717 40.6606C43.2967 41.3387 41.4359 40.1532 41.3934 38.2326C41.3745 37.2936 41.3934 36.3499 41.3934 35.3398C43.3251 35.5912 45.2095 35.8377 47.2214 36.1033C47.0844 36.9285 46.9144 37.7204 46.8341 38.5171V38.5124ZM47.2686 34.453C47.2545 34.5242 47.0372 34.6048 46.9239 34.5905C45.8801 34.4625 44.8411 34.325 43.8021 34.178C42.9661 34.0594 42.1302 33.9314 41.2754 33.8081C41.3179 33.0446 41.3556 32.3522 41.4029 31.5887C43.4148 31.7879 45.4787 31.9966 47.6606 32.2147C47.5331 32.964 47.415 33.7132 47.2686 34.4578V34.453ZM49.4742 16.5796C49.4364 16.9875 49.3892 17.4 49.3372 17.8079C48.8744 21.6064 48.2699 25.4144 48.0668 29.2413C48.0526 29.5354 48.0337 29.8389 47.9204 30.1092C47.519 31.0529 45.8471 30.4696 45.0631 30.3842C43.8776 30.2562 42.6969 30.1281 41.5115 30.0001C41.4548 29.9953 41.3934 29.9859 41.3509 29.9432C41.3037 29.8958 41.299 29.8151 41.3037 29.744C41.4265 26.5667 41.7146 23.214 41.1526 20.0652C40.6472 17.2483 38.7534 15.0337 36.288 13.6916C34.2667 12.5914 32.0233 12.2073 29.9122 11.3964C27.683 10.5428 25.3736 9.95003 23.1822 8.97788C23.1302 8.95417 23.0735 8.92571 23.0499 8.87355C23.0263 8.82138 23.0452 8.75974 23.0641 8.70283C23.5978 7.11419 24.0086 5.41174 24.6557 3.87526C24.6887 3.79464 24.736 3.70928 24.8163 3.69032C24.8635 3.67609 24.9154 3.69032 24.9627 3.6998C29.0432 4.70989 33.1332 5.6773 37.2232 6.64945C41.724 7.72119 48.3502 8.20016 49.4128 13.8624C49.5781 14.7539 49.5592 15.6691 49.4742 16.5749V16.5796Z" fill="url(#paint0_linear_2675_3464)"/>
</g>
<path opacity="0.5" d="M2 28.3359L18.9714 16.8196" stroke="url(#paint1_linear_2675_3464)" stroke-width="3.67384" stroke-linecap="round"/>
<path opacity="0.5" d="M14.0273 31.5156L30.9988 19.9993" stroke="url(#paint2_linear_2675_3464)" stroke-width="3.67384" stroke-linecap="round"/>
<path opacity="0.5" d="M14.6328 42.4297L31.6042 30.9134" stroke="url(#paint3_linear_2675_3464)" stroke-width="3.67384" stroke-linecap="round"/>
<defs>
<linearGradient id="paint0_linear_2675_3464" x1="11.6016" y1="42.425" x2="21.8646" y2="-6.15657" gradientUnits="userSpaceOnUse">
<stop stop-color="#00C9F7"/>
<stop offset="1" stop-color="#166AF6"/>
</linearGradient>
<linearGradient id="paint1_linear_2675_3464" x1="2.5615" y1="29.1634" x2="1.89935" y2="28.1672" gradientUnits="userSpaceOnUse">
<stop stop-color="#00C9F7"/>
<stop offset="1" stop-color="#166AF6"/>
</linearGradient>
<linearGradient id="paint2_linear_2675_3464" x1="14.5888" y1="32.3431" x2="13.9267" y2="31.3469" gradientUnits="userSpaceOnUse">
<stop stop-color="#00C9F7"/>
<stop offset="1" stop-color="#166AF6"/>
</linearGradient>
<linearGradient id="paint3_linear_2675_3464" x1="15.1943" y1="43.2572" x2="14.5322" y2="42.261" gradientUnits="userSpaceOnUse">
<stop stop-color="#00C9F7"/>
<stop offset="1" stop-color="#166AF6"/>
</linearGradient>
<clipPath id="clip0_2675_3464">
<rect width="39.3979" height="42.4285" fill="white" transform="translate(11.6016)"/>
</clipPath>
</defs>
</svg>
