<svg width="85" height="73" viewBox="0 0 85 73" fill="none" xmlns="http://www.w3.org/2000/svg">
<path opacity="0.35" d="M51.1551 27.5637C50.8163 27.6938 50.3612 27.7539 50.0072 27.7439C50.1589 27.3685 50.4522 26.8129 51.0388 25.987C53.1778 23.0538 56.0956 20.9366 59.3674 19.8354C57.8908 22.8636 54.3055 26.3173 51.15 27.5587H51.1551V27.5637ZM82.5177 23.9898C79.4027 18.1135 73.3395 14.3145 66.3358 13.8339C66.0981 13.8139 65.8807 13.7989 65.6531 13.7939C65.3446 8.59333 62.4723 4.33376 57.284 2.00125C41.6735 -5.02128 14.6295 7.10673 0 27.9241L6.56379 27.839C20.46 10.6505 43.4737 1.10029 55.0691 6.68127C58.4572 8.30802 60.308 10.8107 60.4597 14.1943C55.059 15.2705 50.1842 18.3438 46.8113 22.9738C43.7974 27.1082 44.4699 29.6309 45.5723 31.0274C47.4535 33.42 51.1905 33.1246 53.102 32.3688C58.1588 30.3817 63.4432 24.8708 64.8541 20.1107C64.9704 19.7203 65.0766 19.3298 65.1676 18.9394C65.4255 18.9494 65.7037 18.9645 65.9616 18.9845C71.1651 19.3499 75.7516 21.4171 78.8363 25.1661C89.5265 38.085 73.9918 45.5079 73.5924 45.9034L46.9124 57.7661C41.0717 59.8533 34.7456 56.2294 33.6635 50.1829L32.111 19.1897C31.9896 18.3638 31.484 17.4578 30.3664 17.8533L26.331 19.8204C25.4612 20.2058 25.0668 21.0517 25.1022 21.9026L25.2438 61.7403C25.5573 70.6699 35.5092 75.9506 43.1906 71.2405L62.174 59.603L62.2296 59.578C64.5406 58.3117 66.9881 56.8851 69.5671 55.2884C74.8009 52.065 91.1801 40.2673 82.5177 23.9999V23.9898Z" fill="black"/>
</svg>
