<svg width="25" height="24" viewBox="0 0 25 24" fill="none" xmlns="http://www.w3.org/2000/svg">
<path opacity="0.4" d="M15.668 9C17.3248 9 18.668 7.65685 18.668 6C18.668 4.34315 17.3248 3 15.668 3C14.0111 3 12.668 4.34315 12.668 6C12.668 7.65685 14.0111 9 15.668 9Z" fill="#7C8CA8"/>
<path opacity="0.4" d="M16.668 20C19.4294 20 21.668 18.6569 21.668 17C21.668 15.3431 19.4294 14 16.668 14C13.9065 14 11.668 15.3431 11.668 17C11.668 18.6569 13.9065 20 16.668 20Z" fill="#7C8CA8"/>
<path d="M9.66992 10C11.8791 10 13.6699 8.20914 13.6699 6C13.6699 3.79086 11.8791 2 9.66992 2C7.46078 2 5.66992 3.79086 5.66992 6C5.66992 8.20914 7.46078 10 9.66992 10Z" fill="#7C8CA8"/>
<path d="M9.66992 21C13.5359 21 16.6699 19.2091 16.6699 17C16.6699 14.7909 13.5359 13 9.66992 13C5.80393 13 2.66992 14.7909 2.66992 17C2.66992 19.2091 5.80393 21 9.66992 21Z" fill="#7C8CA8"/>
</svg>
