<svg width="25" height="24" viewBox="0 0 25 24" fill="none" xmlns="http://www.w3.org/2000/svg">
<g opacity="0.4">
<path d="M15.668 9C17.3248 9 18.668 7.65685 18.668 6C18.668 4.34315 17.3248 3 15.668 3C14.0111 3 12.668 4.34315 12.668 6C12.668 7.65685 14.0111 9 15.668 9Z" fill="#099FF5"/>
<path d="M16.668 20C19.4294 20 21.668 18.6569 21.668 17C21.668 15.3431 19.4294 14 16.668 14C13.9065 14 11.668 15.3431 11.668 17C11.668 18.6569 13.9065 20 16.668 20Z" fill="#099FF5"/>
</g>
<path d="M9.66992 10C11.8791 10 13.6699 8.20914 13.6699 6C13.6699 3.79086 11.8791 2 9.66992 2C7.46078 2 5.66992 3.79086 5.66992 6C5.66992 8.20914 7.46078 10 9.66992 10Z" fill="url(#paint0_linear_4278_2673)"/>
<path d="M9.66992 21.001C13.5359 21.001 16.6699 19.2101 16.6699 17.001C16.6699 14.7919 13.5359 13.001 9.66992 13.001C5.80393 13.001 2.66992 14.7919 2.66992 17.001C2.66992 19.2101 5.80393 21.001 9.66992 21.001Z" fill="url(#paint1_linear_4278_2673)"/>
<defs>
<linearGradient id="paint0_linear_4278_2673" x1="9.66992" y1="2" x2="-1.36581" y2="18.2623" gradientUnits="userSpaceOnUse">
<stop stop-color="#05B1F5"/>
<stop offset="1" stop-color="#166DF6"/>
</linearGradient>
<linearGradient id="paint1_linear_4278_2673" x1="9.66992" y1="2" x2="-1.36581" y2="18.2623" gradientUnits="userSpaceOnUse">
<stop stop-color="#05B1F5"/>
<stop offset="1" stop-color="#166DF6"/>
</linearGradient>
</defs>
</svg>
