<svg width="25" height="24" viewBox="0 0 25 24" fill="none" xmlns="http://www.w3.org/2000/svg">
<path opacity="0.5" d="M13.961 20.472L13.419 21.388C12.936 22.204 11.729 22.204 11.245 21.388L10.703 20.472C10.283 19.762 10.073 19.406 9.73503 19.21C9.39703 19.013 8.97203 19.006 8.12203 18.991C6.86603 18.97 6.07903 18.893 5.41903 18.619C4.8124 18.3677 4.2612 17.9994 3.7969 17.5351C3.3326 17.0708 2.9643 16.5196 2.71303 15.913C2.33203 14.995 2.33203 13.83 2.33203 11.5V10.5C2.33203 7.227 2.33203 5.59 3.06903 4.388C3.48107 3.7152 4.04648 3.14945 4.71903 2.737C5.92203 2 7.56003 2 10.832 2H13.832C17.105 2 18.742 2 19.945 2.737C20.6175 3.14917 21.1829 3.71456 21.595 4.387C22.332 5.59 22.332 7.228 22.332 10.5V11.5C22.332 13.83 22.332 14.995 21.952 15.913C21.7006 16.5197 21.3322 17.071 20.8677 17.5353C20.4032 17.9996 19.8518 18.3678 19.245 18.619C18.585 18.893 17.798 18.969 16.542 18.991C15.692 19.006 15.267 19.013 14.929 19.21C14.591 19.406 14.381 19.761 13.961 20.472Z" fill="#7C8CA8"/>
<path d="M7.58203 9C7.58203 8.80109 7.66105 8.61032 7.8017 8.46967C7.94235 8.32902 8.13312 8.25 8.33203 8.25H16.332C16.5309 8.25 16.7217 8.32902 16.8624 8.46967C17.003 8.61032 17.082 8.80109 17.082 9C17.082 9.19891 17.003 9.38968 16.8624 9.53033C16.7217 9.67098 16.5309 9.75 16.332 9.75H8.33203C8.13312 9.75 7.94235 9.67098 7.8017 9.53033C7.66105 9.38968 7.58203 9.19891 7.58203 9ZM7.58203 12.5C7.58203 12.3011 7.66105 12.1103 7.8017 11.9697C7.94235 11.829 8.13312 11.75 8.33203 11.75H13.832C14.0309 11.75 14.2217 11.829 14.3624 11.9697C14.503 12.1103 14.582 12.3011 14.582 12.5C14.582 12.6989 14.503 12.8897 14.3624 13.0303C14.2217 13.171 14.0309 13.25 13.832 13.25H8.33203C8.13312 13.25 7.94235 13.171 7.8017 13.0303C7.66105 12.8897 7.58203 12.6989 7.58203 12.5Z" fill="#7C8CA8"/>
</svg>
