<svg width="129" height="110" viewBox="0 0 129 110" fill="none" xmlns="http://www.w3.org/2000/svg">
<path d="M77.6354 41.5343C77.1212 41.7304 76.4305 41.8209 75.8933 41.8058C76.1235 41.2402 76.5686 40.403 77.4589 39.1585C80.7052 34.7387 85.1334 31.5483 90.0988 29.8889C87.8578 34.4521 82.4166 39.6563 77.6277 41.5268H77.6354V41.5343ZM125.233 36.1491C120.505 27.2944 111.303 21.5697 100.674 20.8457C100.314 20.8155 99.9836 20.7929 99.6382 20.7853C99.1701 12.9488 94.811 6.53032 86.9369 3.01559C63.2457 -7.56631 22.2024 10.7088 0 42.0774L9.96152 41.9491C31.0511 16.0487 65.9778 1.65797 83.5755 10.0677C88.7174 12.5189 91.5263 16.2901 91.7565 21.3887C83.5601 23.0103 76.1619 27.6413 71.043 34.618C66.469 40.848 67.4897 44.6493 69.1627 46.7536C72.0176 50.3588 77.6891 49.9138 80.5901 48.7749C88.2646 45.7806 96.2845 37.4765 98.4257 30.3038C98.6022 29.7155 98.7633 29.1272 98.9015 28.5389C99.2929 28.5539 99.715 28.5766 100.106 28.6067C108.003 29.1573 114.964 32.2723 119.646 37.9215C135.87 57.3883 112.293 68.5736 111.687 69.1694L71.1965 87.0448C62.3324 90.1899 52.7316 84.7293 51.0892 75.6181L48.7332 28.916C48.549 27.6715 47.7815 26.3063 46.0855 26.9022L39.9612 29.8663C38.6412 30.4471 38.0426 31.7217 38.0963 33.0039L38.3112 93.0334C38.787 106.489 53.8904 114.446 65.548 107.349L94.3582 89.8128L94.4426 89.7751C97.9498 87.8669 101.664 85.7173 105.578 83.3113C113.521 78.454 138.379 60.6768 125.233 36.1642V36.1491Z" fill="url(#paint0_linear_2899_3600)"/>
<defs>
<linearGradient id="paint0_linear_2899_3600" x1="0" y1="110" x2="21.4172" y2="-18.0008" gradientUnits="userSpaceOnUse">
<stop stop-color="#00C9F7"/>
<stop offset="1" stop-color="#166AF6"/>
</linearGradient>
</defs>
</svg>
