<svg width="62" height="62" viewBox="0 0 62 62" fill="none" xmlns="http://www.w3.org/2000/svg">
<rect x="0.302734" width="61.0909" height="61.0909" rx="30.5455" fill="url(#paint0_linear_4338_2717)"/>
<path d="M41.8481 22.1362L31.4974 17.6427C30.2999 17.1228 29.3371 18.8417 30.2632 19.8467L33.164 22.9979C34.6246 24.5851 35.102 27.011 34.3737 29.1503L29.9694 42.0649C29.4901 43.4719 31.1179 44.5531 31.9686 43.3957L43.2169 28.076C44.6776 26.0868 43.9779 23.0626 41.8461 22.1385L41.8481 22.1362Z" fill="white"/>
<path d="M21.9431 33.4927L29.1399 34.376C29.9725 34.4782 30.3185 33.215 29.5832 32.7564L27.2799 31.3178C26.1201 30.5931 25.4523 29.1556 25.5869 27.6718L26.4045 18.7133C26.4934 17.7374 25.3048 17.3627 24.9445 18.2513L20.1821 30.0104C19.5637 31.5373 20.462 33.3097 21.944 33.4908L21.9431 33.4927Z" fill="#ADCCFF"/>
<defs>
<linearGradient id="paint0_linear_4338_2717" x1="30.8482" y1="-9.10326e-07" x2="0.302733" y2="61.0909" gradientUnits="userSpaceOnUse">
<stop stop-color="#05B1F5"/>
<stop offset="1" stop-color="#166DF6"/>
</linearGradient>
</defs>
</svg>
