<svg width="34" height="34" viewBox="0 0 34 34" fill="none" xmlns="http://www.w3.org/2000/svg">
<g clip-path="url(#clip0_432_15855)">
<path d="M26.6093 8.45618L15.7657 3.74865C14.5112 3.20408 13.5025 5.0048 14.4727 6.05764L17.5117 9.35896C19.0418 11.0217 19.5419 13.5631 18.779 15.8043L14.165 29.3339C13.6628 30.8079 15.3682 31.9406 16.2593 30.728L28.0433 14.6788C29.5735 12.5949 28.8404 9.42673 26.6072 8.4586L26.6093 8.45618Z" fill="url(#paint0_linear_432_15855)"/>
<path d="M5.75639 20.3511L13.2959 21.2765C14.1681 21.3835 14.5306 20.0603 13.7603 19.5798L11.3473 18.0726C10.1322 17.3134 9.43267 15.8075 9.5737 14.2531L10.4303 4.86792C10.5233 3.84554 9.27815 3.45299 8.90067 4.38391L3.91153 16.703C3.26367 18.3026 4.2048 20.1595 5.75737 20.3492L5.75639 20.3511Z" fill="#ADCCFF"/>
</g>
<defs>
<linearGradient id="paint0_linear_432_15855" x1="21.4629" y1="3.64831" x2="4.25855" y2="22.0765" gradientUnits="userSpaceOnUse">
<stop stop-color="#05B1F5"/>
<stop offset="1" stop-color="#166DF6"/>
</linearGradient>
<clipPath id="clip0_432_15855">
<rect width="33.5238" height="33.5238" fill="white" transform="translate(0.238281 0.238159)"/>
</clipPath>
</defs>
</svg>
