<svg width="40" height="40" viewBox="0 0 40 40" fill="none" xmlns="http://www.w3.org/2000/svg">
<path d="M13 11.6445C13 14.1831 15.8324 16.8597 18.1692 18.6352C19.4804 19.6297 20.1352 20.1286 21.2051 20.1286C22.2751 20.1286 22.9298 19.6297 24.241 18.6352C26.5778 16.858 29.4103 14.1815 29.4103 11.6445C29.4103 7.06602 24.8974 5.35443 21.2051 8.89248C17.5128 5.35443 13 7.06602 13 11.6445Z" fill="url(#paint0_linear_432_17575)"/>
<path opacity="0.5" d="M10.5818 35.4058H10.1551C8.60761 35.4058 7.83469 35.4058 7.35387 34.925C6.87305 34.4474 6.87305 33.6729 6.87305 32.1254V30.3006C6.87305 29.4505 6.87305 29.0255 7.0913 28.6448C7.30956 28.264 7.63941 28.0737 8.2991 27.6897C12.6413 25.1641 18.8066 23.743 22.9206 26.1964C23.1974 26.3615 23.4436 26.5628 23.6591 26.8002C23.8799 27.0416 24.0501 27.3248 24.1595 27.633C24.2689 27.9413 24.3153 28.2684 24.296 28.5949C24.2767 28.9215 24.1921 29.2408 24.0472 29.5341C23.9023 29.8273 23.7 30.0885 23.4523 30.3022C23.255 30.4895 23.0142 30.6249 22.7516 30.696C22.9485 30.6731 23.1373 30.6474 23.3178 30.6189C24.8127 30.381 26.0681 29.5801 27.2168 28.712L30.1838 26.472C30.7134 26.0877 31.351 25.8808 32.0054 25.8808C32.6597 25.8808 33.2973 26.0877 33.8269 26.472C34.7672 27.1826 35.056 28.3527 34.4603 29.3077C33.7662 30.4204 32.7881 31.8431 31.8495 32.7129C30.9108 33.5826 29.5094 34.3605 28.3672 34.9118C27.1003 35.5239 25.7022 35.8751 24.2794 36.1065C21.3945 36.5726 18.3881 36.5004 15.5327 35.9129C13.9037 35.5776 12.2449 35.4066 10.5818 35.4058Z" fill="#166AF6"/>
<defs>
<linearGradient id="paint0_linear_432_17575" x1="21.2051" y1="7" x2="15.5461" y2="21.1471" gradientUnits="userSpaceOnUse">
<stop stop-color="#05B1F5"/>
<stop offset="1" stop-color="#166DF6"/>
</linearGradient>
</defs>
</svg>
