<svg width="14" height="14" viewBox="0 0 14 14" fill="none" xmlns="http://www.w3.org/2000/svg">
<path opacity="0.5" d="M6.99984 12.8335C10.2216 12.8335 12.8332 10.222 12.8332 7.0002C12.8332 3.77845 10.2216 1.16687 6.99984 1.16687C3.77809 1.16687 1.1665 3.77845 1.1665 7.0002C1.1665 10.222 3.77809 12.8335 6.99984 12.8335Z" fill="#FF0000"/>
<path fill-rule="evenodd" clip-rule="evenodd" d="M7 4.22937C7.11603 4.22937 7.22731 4.27546 7.30936 4.35751C7.39141 4.43956 7.4375 4.55084 7.4375 4.66687V6.81937L8.7675 8.14937C8.81048 8.18942 8.84496 8.23772 8.86887 8.29139C8.89278 8.34506 8.90564 8.40299 8.90668 8.46173C8.90772 8.52048 8.89691 8.57883 8.87491 8.6333C8.8529 8.68778 8.82015 8.73726 8.77861 8.77881C8.73706 8.82035 8.68758 8.8531 8.6331 8.87511C8.57862 8.89711 8.52027 8.90792 8.46153 8.90688C8.40279 8.90585 8.34485 8.89299 8.29119 8.86908C8.23752 8.84516 8.18922 8.81069 8.14917 8.7677L6.69083 7.30937C6.60876 7.2274 6.5626 7.1162 6.5625 7.0002V4.66687C6.5625 4.55084 6.60859 4.43956 6.69064 4.35751C6.77269 4.27546 6.88397 4.22937 7 4.22937Z" fill="white"/>
</svg>
