<svg width="24" height="25" viewBox="0 0 24 25" fill="none" xmlns="http://www.w3.org/2000/svg">
<path opacity="0.5" d="M12 22.5002C17.523 22.5002 22 18.0232 22 12.5002C22 6.97724 17.523 2.50024 12 2.50024C6.477 2.50024 2 6.97724 2 12.5002C2 18.0232 6.477 22.5002 12 22.5002Z" fill="#91BAFF"/>
<path fill-rule="evenodd" clip-rule="evenodd" d="M12 7.75024C12.1989 7.75024 12.3897 7.82926 12.5303 7.96991C12.671 8.11057 12.75 8.30133 12.75 8.50024V12.1902L15.03 14.4702C15.1037 14.5389 15.1628 14.6217 15.2038 14.7137C15.2448 14.8057 15.2668 14.905 15.2686 15.0057C15.2704 15.1064 15.2518 15.2065 15.2141 15.2998C15.1764 15.3932 15.1203 15.4781 15.049 15.5493C14.9778 15.6205 14.893 15.6766 14.7996 15.7144C14.7062 15.7521 14.6062 15.7706 14.5055 15.7688C14.4048 15.7671 14.3055 15.745 14.2135 15.704C14.1215 15.663 14.0387 15.6039 13.97 15.5302L11.47 13.0302C11.3293 12.8897 11.2502 12.6991 11.25 12.5002V8.50024C11.25 8.30133 11.329 8.11057 11.4697 7.96991C11.6103 7.82926 11.8011 7.75024 12 7.75024Z" fill="url(#paint0_linear_432_17444)"/>
<defs>
<linearGradient id="paint0_linear_432_17444" x1="13.2594" y1="7.75024" x2="8.24768" y2="12.7736" gradientUnits="userSpaceOnUse">
<stop stop-color="#05B1F5"/>
<stop offset="1" stop-color="#166DF6"/>
</linearGradient>
</defs>
</svg>
