<svg width="15" height="15" viewBox="0 0 15 15" fill="none" xmlns="http://www.w3.org/2000/svg">
<path opacity="0.5" d="M7.35995 13.7133C10.5817 13.7133 13.1933 11.1017 13.1933 7.87996C13.1933 4.65821 10.5817 2.04663 7.35995 2.04663C4.1382 2.04663 1.52661 4.65821 1.52661 7.87996C1.52661 11.1017 4.1382 13.7133 7.35995 13.7133Z" fill="#BED9FF"/>
<path fill-rule="evenodd" clip-rule="evenodd" d="M7.36011 5.10913C7.47614 5.10913 7.58742 5.15522 7.66947 5.23727C7.75151 5.31932 7.79761 5.4306 7.79761 5.54663V7.69913L9.12761 9.02913C9.17059 9.06918 9.20507 9.11748 9.22898 9.17115C9.25289 9.22482 9.26575 9.28275 9.26679 9.34149C9.26782 9.40024 9.25702 9.45859 9.23501 9.51306C9.21301 9.56754 9.18026 9.61703 9.13871 9.65857C9.09717 9.70011 9.04768 9.73286 8.99321 9.75487C8.93873 9.77687 8.88038 9.78768 8.82164 9.78664C8.76289 9.78561 8.70496 9.77275 8.65129 9.74884C8.59763 9.72492 8.54933 9.69045 8.50927 9.64746L7.05094 8.18913C6.96887 8.10716 6.92271 7.99596 6.92261 7.87996V5.54663C6.92261 5.4306 6.9687 5.31932 7.05075 5.23727C7.1328 5.15522 7.24408 5.10913 7.36011 5.10913Z" fill="url(#paint0_linear_416_1038)"/>
<defs>
<linearGradient id="paint0_linear_416_1038" x1="8.09473" y1="5.10913" x2="5.17125" y2="8.03943" gradientUnits="userSpaceOnUse">
<stop stop-color="#05B1F5"/>
<stop offset="1" stop-color="#166DF6"/>
</linearGradient>
</defs>
</svg>
