<svg width="61" height="61" viewBox="0 0 61 61" fill="none" xmlns="http://www.w3.org/2000/svg">
<rect x="0.90918" width="60.0909" height="60.0909" rx="30.0455" fill="url(#paint0_linear_4347_9136)"/>
<path d="M22.2246 17.528C22.2246 20.2293 25.2385 23.0774 27.7251 24.9667C29.1203 26.0249 29.817 26.5557 30.9555 26.5557C32.094 26.5557 32.7907 26.0249 34.1859 24.9667C36.6725 23.0756 39.6864 20.2276 39.6864 17.528C39.6864 12.6562 34.8844 10.8349 30.9555 14.5997C27.0266 10.8349 22.2246 12.6562 22.2246 17.528Z" fill="white"/>
<path d="M20.9327 46.4427H20.4787C18.832 46.4427 18.0096 46.4427 17.498 45.9311C16.9863 45.423 16.9863 44.5988 16.9863 42.9521V41.0104C16.9863 40.1059 16.9863 39.6536 17.2186 39.2485C17.4508 38.8434 17.8018 38.6408 18.5038 38.2322C23.1241 35.5448 29.6845 34.0327 34.0622 36.6432C34.3567 36.819 34.6186 37.0332 34.848 37.2858C35.0829 37.5426 35.264 37.8439 35.3804 38.1719C35.4968 38.5 35.5462 38.848 35.5257 39.1955C35.5052 39.5429 35.4151 39.8827 35.2609 40.1948C35.1067 40.5068 34.8915 40.7848 34.6279 41.0121C34.418 41.2115 34.1618 41.3555 33.8823 41.4312C34.0919 41.4068 34.2927 41.3794 34.4847 41.3491C36.0755 41.0959 37.4113 40.2438 38.6337 39.3201L41.7907 36.9365C42.3543 36.5276 43.0327 36.3074 43.729 36.3074C44.4253 36.3074 45.1037 36.5276 45.6673 36.9365C46.6678 37.6926 46.9751 38.9377 46.3413 39.9539C45.6026 41.1378 44.5619 42.6518 43.5631 43.5772C42.5643 44.5027 41.0731 45.3304 39.8577 45.9171C38.5097 46.5684 37.0219 46.9421 35.508 47.1883C32.4382 47.6843 29.2392 47.6074 26.2009 46.9823C24.4675 46.6255 22.7024 46.4436 20.9327 46.4427Z" fill="white"/>
<defs>
<linearGradient id="paint0_linear_4347_9136" x1="30.9546" y1="-8.95424e-07" x2="0.909178" y2="60.0909" gradientUnits="userSpaceOnUse">
<stop stop-color="#05B1F5"/>
<stop offset="1" stop-color="#166DF6"/>
</linearGradient>
</defs>
</svg>
