<svg width="20" height="20" viewBox="0 0 20 20" fill="none" xmlns="http://www.w3.org/2000/svg">
<path d="M0 10.204C0 7.915 0 6.771 0.52 5.823C1.038 4.874 1.987 4.286 3.884 3.108L5.884 1.867C7.889 0.622 8.892 0 10 0C11.108 0 12.11 0.622 14.116 1.867L16.116 3.108C18.013 4.286 18.962 4.874 19.481 5.823C20 6.772 20 7.915 20 10.203V11.725C20 15.625 20 17.576 18.828 18.788C17.656 20 15.771 20 12 20H8C4.229 20 2.343 20 1.172 18.788C0.000999928 17.576 0 15.626 0 11.725V10.204Z" fill="url(#paint0_linear_4278_2671)"/>
<defs>
<linearGradient id="paint0_linear_4278_2671" x1="10" y1="-2.98023e-07" x2="-4.47035e-07" y2="20" gradientUnits="userSpaceOnUse">
<stop stop-color="#05B1F5"/>
<stop offset="1" stop-color="#166DF6"/>
</linearGradient>
</defs>
</svg>
