<svg width="175" height="153" viewBox="0 0 175 153" fill="none" xmlns="http://www.w3.org/2000/svg">
<path d="M106.446 68.6643C105.626 68.632 104.629 68.3518 103.905 68.0168C104.561 67.3764 105.673 66.4898 107.639 65.3057C114.735 61.1496 122.701 59.3698 130.477 60.0022C124.666 64.9429 114.102 68.8892 106.44 68.6494L106.45 68.6539L106.446 68.6643ZM174.635 89.1412C173.528 74.2421 164.428 61.0132 150.363 53.8005C149.889 53.5481 149.452 53.324 148.985 53.1115C153.075 42.1003 151.001 30.7547 142.378 21.3307C116.44 -7.0332 49.4146 -6.01325 0.194976 23.9734L13.8635 29.6275C58.2654 6.48198 114.601 7.20455 133.537 29.026C139.073 35.3939 140.63 42.2049 137.868 49.3256C125.706 46.7507 112.818 48.7662 101.625 55.3296C91.6248 61.1889 90.7238 66.9947 91.7367 70.8571C93.4565 77.4677 101.463 80.1771 106.108 80.3143C118.386 80.703 134.338 74.0185 141.588 65.4437C142.184 64.741 142.758 64.0292 143.302 63.304C143.827 63.5537 144.389 63.8317 144.905 64.1021C155.347 69.4782 162.965 77.8199 165.943 88.3C176.332 124.468 137.417 125.996 136.23 126.457L70.2002 127.253C56.2086 126.375 46.4045 113.274 49.6613 99.8291L74.6263 34.4604C75.1259 32.6475 74.9026 30.3278 72.229 30.1516L62.0847 30.6289C59.9333 30.6521 58.3475 32.0483 57.6471 33.8365L21.7192 116.213C14.2494 134.928 30.0548 154.669 50.2425 151.767L100.131 144.601L100.269 144.598C106.206 144.036 112.57 143.265 119.362 142.259C133.131 140.252 177.772 130.442 174.626 89.1619L174.635 89.1412Z" fill="url(#paint0_linear_4329_6033)"/>
<defs>
<linearGradient id="paint0_linear_4329_6033" x1="113.586" y1="4.06799" x2="-26.5416" y2="100.133" gradientUnits="userSpaceOnUse">
<stop stop-color="#166AF6"/>
<stop offset="1" stop-color="#00C9F7"/>
</linearGradient>
</defs>
</svg>
